<mxfile host="Electron" modified="2023-12-04T06:53:31.763Z" agent="Mozilla/5.0 (Windows NT 10.0; Win64; x64) AppleWebKit/537.36 (KHTML, like Gecko) draw.io/22.0.3 Chrome/114.0.5735.289 Electron/25.8.4 Safari/537.36" etag="ZWtu8ToE7sRW4ohJVjGC" version="22.0.3" type="device">
  <diagram name="第 1 页" id="WHzPKReftMsSK28DRtk9">
    <mxGraphModel dx="1018" dy="686" grid="1" gridSize="10" guides="1" tooltips="1" connect="1" arrows="1" fold="1" page="1" pageScale="1" pageWidth="1169" pageHeight="827" background="none" math="0" shadow="0">
      <root>
        <mxCell id="0" />
        <mxCell id="1" parent="0" />
        <mxCell id="6iExXYZJCIQ0BrOf0lML-981" style="edgeStyle=orthogonalEdgeStyle;rounded=0;orthogonalLoop=1;jettySize=auto;html=1;exitX=0.5;exitY=1;exitDx=0;exitDy=0;" edge="1" parent="1" source="6iExXYZJCIQ0BrOf0lML-976">
          <mxGeometry relative="1" as="geometry">
            <mxPoint x="770" y="250" as="targetPoint" />
            <Array as="points">
              <mxPoint x="240" y="480" />
              <mxPoint x="770" y="480" />
              <mxPoint x="770" y="250" />
            </Array>
          </mxGeometry>
        </mxCell>
        <mxCell id="6iExXYZJCIQ0BrOf0lML-976" value="" style="rounded=1;whiteSpace=wrap;html=1;dashed=1;dashPattern=8 8;fillColor=none;" vertex="1" parent="1">
          <mxGeometry x="120" y="310" width="240" height="70" as="geometry" />
        </mxCell>
        <mxCell id="6iExXYZJCIQ0BrOf0lML-965" value="" style="group" vertex="1" connectable="0" parent="1">
          <mxGeometry x="430" y="160" width="120" height="120" as="geometry" />
        </mxCell>
        <mxCell id="6iExXYZJCIQ0BrOf0lML-809" value="" style="group;strokeColor=#999999;container=0;" vertex="1" connectable="0" parent="6iExXYZJCIQ0BrOf0lML-965">
          <mxGeometry width="120" height="10" as="geometry" />
        </mxCell>
        <mxCell id="6iExXYZJCIQ0BrOf0lML-810" value="" style="rounded=0;whiteSpace=wrap;html=1;strokeColor=#999999;container=0;fillColor=#E6E6E6;" vertex="1" parent="6iExXYZJCIQ0BrOf0lML-965">
          <mxGeometry width="10" height="10" as="geometry" />
        </mxCell>
        <mxCell id="6iExXYZJCIQ0BrOf0lML-811" value="" style="rounded=0;whiteSpace=wrap;html=1;strokeColor=#999999;container=0;fillColor=#CCCCCC;" vertex="1" parent="6iExXYZJCIQ0BrOf0lML-965">
          <mxGeometry x="10" width="10" height="10" as="geometry" />
        </mxCell>
        <mxCell id="6iExXYZJCIQ0BrOf0lML-812" value="" style="rounded=0;whiteSpace=wrap;html=1;strokeColor=#999999;container=0;fillColor=#E6E6E6;" vertex="1" parent="6iExXYZJCIQ0BrOf0lML-965">
          <mxGeometry x="20" width="10" height="10" as="geometry" />
        </mxCell>
        <mxCell id="6iExXYZJCIQ0BrOf0lML-813" value="" style="rounded=0;whiteSpace=wrap;html=1;strokeColor=#999999;container=0;fillColor=#808080;" vertex="1" parent="6iExXYZJCIQ0BrOf0lML-965">
          <mxGeometry x="30" width="10" height="10" as="geometry" />
        </mxCell>
        <mxCell id="6iExXYZJCIQ0BrOf0lML-814" value="" style="rounded=0;whiteSpace=wrap;html=1;strokeColor=#999999;container=0;fillColor=#999999;" vertex="1" parent="6iExXYZJCIQ0BrOf0lML-965">
          <mxGeometry x="40" width="10" height="10" as="geometry" />
        </mxCell>
        <mxCell id="6iExXYZJCIQ0BrOf0lML-815" value="" style="rounded=0;whiteSpace=wrap;html=1;strokeColor=#999999;container=0;fillColor=#CCCCCC;" vertex="1" parent="6iExXYZJCIQ0BrOf0lML-965">
          <mxGeometry x="50" width="10" height="10" as="geometry" />
        </mxCell>
        <mxCell id="6iExXYZJCIQ0BrOf0lML-816" value="" style="rounded=0;whiteSpace=wrap;html=1;strokeColor=#999999;container=0;fillColor=#F2F2F2;" vertex="1" parent="6iExXYZJCIQ0BrOf0lML-965">
          <mxGeometry x="60" width="10" height="10" as="geometry" />
        </mxCell>
        <mxCell id="6iExXYZJCIQ0BrOf0lML-817" value="" style="rounded=0;whiteSpace=wrap;html=1;strokeColor=#999999;container=0;fillColor=#E6E6E6;" vertex="1" parent="6iExXYZJCIQ0BrOf0lML-965">
          <mxGeometry x="70" width="10" height="10" as="geometry" />
        </mxCell>
        <mxCell id="6iExXYZJCIQ0BrOf0lML-818" value="" style="rounded=0;whiteSpace=wrap;html=1;strokeColor=#999999;container=0;fillColor=#E6E6E6;" vertex="1" parent="6iExXYZJCIQ0BrOf0lML-965">
          <mxGeometry x="80" width="10" height="10" as="geometry" />
        </mxCell>
        <mxCell id="6iExXYZJCIQ0BrOf0lML-819" value="" style="rounded=0;whiteSpace=wrap;html=1;strokeColor=#999999;container=0;fillColor=#4D4D4D;" vertex="1" parent="6iExXYZJCIQ0BrOf0lML-965">
          <mxGeometry x="90" width="10" height="10" as="geometry" />
        </mxCell>
        <mxCell id="6iExXYZJCIQ0BrOf0lML-820" value="" style="rounded=0;whiteSpace=wrap;html=1;strokeColor=#999999;container=0;fillColor=#999999;" vertex="1" parent="6iExXYZJCIQ0BrOf0lML-965">
          <mxGeometry x="100" width="10" height="10" as="geometry" />
        </mxCell>
        <mxCell id="6iExXYZJCIQ0BrOf0lML-821" value="" style="rounded=0;whiteSpace=wrap;html=1;strokeColor=#999999;container=0;fillColor=#CCCCCC;" vertex="1" parent="6iExXYZJCIQ0BrOf0lML-965">
          <mxGeometry x="110" width="10" height="10" as="geometry" />
        </mxCell>
        <mxCell id="6iExXYZJCIQ0BrOf0lML-822" value="" style="group;strokeColor=#999999;container=0;" vertex="1" connectable="0" parent="6iExXYZJCIQ0BrOf0lML-965">
          <mxGeometry y="10" width="120" height="10" as="geometry" />
        </mxCell>
        <mxCell id="6iExXYZJCIQ0BrOf0lML-823" value="" style="rounded=0;whiteSpace=wrap;html=1;strokeColor=#999999;container=0;fillColor=#D4D4D4;" vertex="1" parent="6iExXYZJCIQ0BrOf0lML-965">
          <mxGeometry y="10" width="10" height="10" as="geometry" />
        </mxCell>
        <mxCell id="6iExXYZJCIQ0BrOf0lML-824" value="" style="rounded=0;whiteSpace=wrap;html=1;strokeColor=#999999;container=0;fillColor=#CCCCCC;" vertex="1" parent="6iExXYZJCIQ0BrOf0lML-965">
          <mxGeometry x="10" y="10" width="10" height="10" as="geometry" />
        </mxCell>
        <mxCell id="6iExXYZJCIQ0BrOf0lML-825" value="" style="rounded=0;whiteSpace=wrap;html=1;strokeColor=#999999;container=0;fillColor=#E6E6E6;" vertex="1" parent="6iExXYZJCIQ0BrOf0lML-965">
          <mxGeometry x="20" y="10" width="10" height="10" as="geometry" />
        </mxCell>
        <mxCell id="6iExXYZJCIQ0BrOf0lML-826" value="" style="rounded=0;whiteSpace=wrap;html=1;strokeColor=#999999;container=0;fillColor=#666666;" vertex="1" parent="6iExXYZJCIQ0BrOf0lML-965">
          <mxGeometry x="30" y="10" width="10" height="10" as="geometry" />
        </mxCell>
        <mxCell id="6iExXYZJCIQ0BrOf0lML-827" value="" style="rounded=0;whiteSpace=wrap;html=1;strokeColor=#999999;container=0;fillColor=#999999;" vertex="1" parent="6iExXYZJCIQ0BrOf0lML-965">
          <mxGeometry x="40" y="10" width="10" height="10" as="geometry" />
        </mxCell>
        <mxCell id="6iExXYZJCIQ0BrOf0lML-828" value="" style="rounded=0;whiteSpace=wrap;html=1;strokeColor=#999999;container=0;fillColor=#CCCCCC;" vertex="1" parent="6iExXYZJCIQ0BrOf0lML-965">
          <mxGeometry x="50" y="10" width="10" height="10" as="geometry" />
        </mxCell>
        <mxCell id="6iExXYZJCIQ0BrOf0lML-829" value="" style="rounded=0;whiteSpace=wrap;html=1;strokeColor=#999999;container=0;fillColor=#E6E6E6;" vertex="1" parent="6iExXYZJCIQ0BrOf0lML-965">
          <mxGeometry x="60" y="10" width="10" height="10" as="geometry" />
        </mxCell>
        <mxCell id="6iExXYZJCIQ0BrOf0lML-830" value="" style="rounded=0;whiteSpace=wrap;html=1;strokeColor=#999999;container=0;" vertex="1" parent="6iExXYZJCIQ0BrOf0lML-965">
          <mxGeometry x="70" y="10" width="10" height="10" as="geometry" />
        </mxCell>
        <mxCell id="6iExXYZJCIQ0BrOf0lML-831" value="" style="rounded=0;whiteSpace=wrap;html=1;strokeColor=#999999;container=0;fillColor=#E6E6E6;" vertex="1" parent="6iExXYZJCIQ0BrOf0lML-965">
          <mxGeometry x="80" y="10" width="10" height="10" as="geometry" />
        </mxCell>
        <mxCell id="6iExXYZJCIQ0BrOf0lML-832" value="" style="rounded=0;whiteSpace=wrap;html=1;strokeColor=#999999;container=0;fillColor=#4D4D4D;" vertex="1" parent="6iExXYZJCIQ0BrOf0lML-965">
          <mxGeometry x="90" y="10" width="10" height="10" as="geometry" />
        </mxCell>
        <mxCell id="6iExXYZJCIQ0BrOf0lML-833" value="" style="rounded=0;whiteSpace=wrap;html=1;strokeColor=#999999;container=0;fillColor=#F2F2F2;" vertex="1" parent="6iExXYZJCIQ0BrOf0lML-965">
          <mxGeometry x="100" y="10" width="10" height="10" as="geometry" />
        </mxCell>
        <mxCell id="6iExXYZJCIQ0BrOf0lML-834" value="" style="rounded=0;whiteSpace=wrap;html=1;strokeColor=#999999;container=0;fillColor=#CCCCCC;" vertex="1" parent="6iExXYZJCIQ0BrOf0lML-965">
          <mxGeometry x="110" y="10" width="10" height="10" as="geometry" />
        </mxCell>
        <mxCell id="6iExXYZJCIQ0BrOf0lML-835" value="" style="group;strokeColor=#999999;container=0;" vertex="1" connectable="0" parent="6iExXYZJCIQ0BrOf0lML-965">
          <mxGeometry y="20" width="120" height="10" as="geometry" />
        </mxCell>
        <mxCell id="6iExXYZJCIQ0BrOf0lML-836" value="" style="rounded=0;whiteSpace=wrap;html=1;strokeColor=#999999;container=0;fillColor=#E6E6E6;" vertex="1" parent="6iExXYZJCIQ0BrOf0lML-965">
          <mxGeometry y="20" width="10" height="10" as="geometry" />
        </mxCell>
        <mxCell id="6iExXYZJCIQ0BrOf0lML-837" value="" style="rounded=0;whiteSpace=wrap;html=1;strokeColor=#999999;container=0;fillColor=#CCCCCC;" vertex="1" parent="6iExXYZJCIQ0BrOf0lML-965">
          <mxGeometry x="10" y="20" width="10" height="10" as="geometry" />
        </mxCell>
        <mxCell id="6iExXYZJCIQ0BrOf0lML-838" value="" style="rounded=0;whiteSpace=wrap;html=1;strokeColor=#999999;container=0;fillColor=#E6E6E6;" vertex="1" parent="6iExXYZJCIQ0BrOf0lML-965">
          <mxGeometry x="20" y="20" width="10" height="10" as="geometry" />
        </mxCell>
        <mxCell id="6iExXYZJCIQ0BrOf0lML-839" value="" style="rounded=0;whiteSpace=wrap;html=1;strokeColor=#999999;container=0;fillColor=#808080;" vertex="1" parent="6iExXYZJCIQ0BrOf0lML-965">
          <mxGeometry x="30" y="20" width="10" height="10" as="geometry" />
        </mxCell>
        <mxCell id="6iExXYZJCIQ0BrOf0lML-840" value="" style="rounded=0;whiteSpace=wrap;html=1;strokeColor=#999999;container=0;fillColor=#808080;" vertex="1" parent="6iExXYZJCIQ0BrOf0lML-965">
          <mxGeometry x="40" y="20" width="10" height="10" as="geometry" />
        </mxCell>
        <mxCell id="6iExXYZJCIQ0BrOf0lML-841" value="" style="rounded=0;whiteSpace=wrap;html=1;strokeColor=#999999;container=0;fillColor=#CCCCCC;" vertex="1" parent="6iExXYZJCIQ0BrOf0lML-965">
          <mxGeometry x="50" y="20" width="10" height="10" as="geometry" />
        </mxCell>
        <mxCell id="6iExXYZJCIQ0BrOf0lML-842" value="" style="rounded=0;whiteSpace=wrap;html=1;strokeColor=#999999;container=0;fillColor=#E6E6E6;" vertex="1" parent="6iExXYZJCIQ0BrOf0lML-965">
          <mxGeometry x="60" y="20" width="10" height="10" as="geometry" />
        </mxCell>
        <mxCell id="6iExXYZJCIQ0BrOf0lML-843" value="" style="rounded=0;whiteSpace=wrap;html=1;strokeColor=#999999;container=0;" vertex="1" parent="6iExXYZJCIQ0BrOf0lML-965">
          <mxGeometry x="70" y="20" width="10" height="10" as="geometry" />
        </mxCell>
        <mxCell id="6iExXYZJCIQ0BrOf0lML-844" value="" style="rounded=0;whiteSpace=wrap;html=1;strokeColor=#999999;container=0;fillColor=#E6E6E6;" vertex="1" parent="6iExXYZJCIQ0BrOf0lML-965">
          <mxGeometry x="80" y="20" width="10" height="10" as="geometry" />
        </mxCell>
        <mxCell id="6iExXYZJCIQ0BrOf0lML-845" value="" style="rounded=0;whiteSpace=wrap;html=1;strokeColor=#999999;container=0;fillColor=#4D4D4D;" vertex="1" parent="6iExXYZJCIQ0BrOf0lML-965">
          <mxGeometry x="90" y="20" width="10" height="10" as="geometry" />
        </mxCell>
        <mxCell id="6iExXYZJCIQ0BrOf0lML-846" value="" style="rounded=0;whiteSpace=wrap;html=1;strokeColor=#999999;container=0;fillColor=#999999;" vertex="1" parent="6iExXYZJCIQ0BrOf0lML-965">
          <mxGeometry x="100" y="20" width="10" height="10" as="geometry" />
        </mxCell>
        <mxCell id="6iExXYZJCIQ0BrOf0lML-847" value="" style="rounded=0;whiteSpace=wrap;html=1;strokeColor=#999999;container=0;fillColor=#CCCCCC;" vertex="1" parent="6iExXYZJCIQ0BrOf0lML-965">
          <mxGeometry x="110" y="20" width="10" height="10" as="geometry" />
        </mxCell>
        <mxCell id="6iExXYZJCIQ0BrOf0lML-848" value="" style="group;strokeColor=#999999;container=0;" vertex="1" connectable="0" parent="6iExXYZJCIQ0BrOf0lML-965">
          <mxGeometry y="30" width="120" height="10" as="geometry" />
        </mxCell>
        <mxCell id="6iExXYZJCIQ0BrOf0lML-849" value="" style="rounded=0;whiteSpace=wrap;html=1;strokeColor=#999999;container=0;fillColor=#E6E6E6;" vertex="1" parent="6iExXYZJCIQ0BrOf0lML-965">
          <mxGeometry y="30" width="10" height="10" as="geometry" />
        </mxCell>
        <mxCell id="6iExXYZJCIQ0BrOf0lML-850" value="" style="rounded=0;whiteSpace=wrap;html=1;strokeColor=#999999;container=0;fillColor=#BABABA;" vertex="1" parent="6iExXYZJCIQ0BrOf0lML-965">
          <mxGeometry x="10" y="30" width="10" height="10" as="geometry" />
        </mxCell>
        <mxCell id="6iExXYZJCIQ0BrOf0lML-851" value="" style="rounded=0;whiteSpace=wrap;html=1;strokeColor=#999999;container=0;fillColor=#FFFFFF;" vertex="1" parent="6iExXYZJCIQ0BrOf0lML-965">
          <mxGeometry x="20" y="30" width="10" height="10" as="geometry" />
        </mxCell>
        <mxCell id="6iExXYZJCIQ0BrOf0lML-852" value="" style="rounded=0;whiteSpace=wrap;html=1;strokeColor=#999999;container=0;fillColor=#808080;" vertex="1" parent="6iExXYZJCIQ0BrOf0lML-965">
          <mxGeometry x="30" y="30" width="10" height="10" as="geometry" />
        </mxCell>
        <mxCell id="6iExXYZJCIQ0BrOf0lML-853" value="" style="rounded=0;whiteSpace=wrap;html=1;strokeColor=#999999;container=0;fillColor=#B8B8B8;" vertex="1" parent="6iExXYZJCIQ0BrOf0lML-965">
          <mxGeometry x="40" y="30" width="10" height="10" as="geometry" />
        </mxCell>
        <mxCell id="6iExXYZJCIQ0BrOf0lML-854" value="" style="rounded=0;whiteSpace=wrap;html=1;strokeColor=#999999;container=0;fillColor=#CCCCCC;" vertex="1" parent="6iExXYZJCIQ0BrOf0lML-965">
          <mxGeometry x="50" y="30" width="10" height="10" as="geometry" />
        </mxCell>
        <mxCell id="6iExXYZJCIQ0BrOf0lML-855" value="" style="rounded=0;whiteSpace=wrap;html=1;strokeColor=#999999;container=0;fillColor=#BFBFBF;" vertex="1" parent="6iExXYZJCIQ0BrOf0lML-965">
          <mxGeometry x="60" y="30" width="10" height="10" as="geometry" />
        </mxCell>
        <mxCell id="6iExXYZJCIQ0BrOf0lML-856" value="" style="rounded=0;whiteSpace=wrap;html=1;strokeColor=#999999;container=0;" vertex="1" parent="6iExXYZJCIQ0BrOf0lML-965">
          <mxGeometry x="70" y="30" width="10" height="10" as="geometry" />
        </mxCell>
        <mxCell id="6iExXYZJCIQ0BrOf0lML-857" value="" style="rounded=0;whiteSpace=wrap;html=1;strokeColor=#999999;container=0;fillColor=#999999;" vertex="1" parent="6iExXYZJCIQ0BrOf0lML-965">
          <mxGeometry x="80" y="30" width="10" height="10" as="geometry" />
        </mxCell>
        <mxCell id="6iExXYZJCIQ0BrOf0lML-858" value="" style="rounded=0;whiteSpace=wrap;html=1;strokeColor=#999999;container=0;fillColor=#4D4D4D;" vertex="1" parent="6iExXYZJCIQ0BrOf0lML-965">
          <mxGeometry x="90" y="30" width="10" height="10" as="geometry" />
        </mxCell>
        <mxCell id="6iExXYZJCIQ0BrOf0lML-859" value="" style="rounded=0;whiteSpace=wrap;html=1;strokeColor=#999999;container=0;fillColor=#999999;" vertex="1" parent="6iExXYZJCIQ0BrOf0lML-965">
          <mxGeometry x="100" y="30" width="10" height="10" as="geometry" />
        </mxCell>
        <mxCell id="6iExXYZJCIQ0BrOf0lML-860" value="" style="rounded=0;whiteSpace=wrap;html=1;strokeColor=#999999;container=0;fillColor=#CCCCCC;" vertex="1" parent="6iExXYZJCIQ0BrOf0lML-965">
          <mxGeometry x="110" y="30" width="10" height="10" as="geometry" />
        </mxCell>
        <mxCell id="6iExXYZJCIQ0BrOf0lML-861" value="" style="group;strokeColor=#999999;container=0;" vertex="1" connectable="0" parent="6iExXYZJCIQ0BrOf0lML-965">
          <mxGeometry y="40" width="120" height="10" as="geometry" />
        </mxCell>
        <mxCell id="6iExXYZJCIQ0BrOf0lML-862" value="" style="rounded=0;whiteSpace=wrap;html=1;strokeColor=#999999;container=0;fillColor=#E8E8E8;" vertex="1" parent="6iExXYZJCIQ0BrOf0lML-965">
          <mxGeometry y="40" width="10" height="10" as="geometry" />
        </mxCell>
        <mxCell id="6iExXYZJCIQ0BrOf0lML-863" value="" style="rounded=0;whiteSpace=wrap;html=1;strokeColor=#999999;container=0;fillColor=#CCCCCC;" vertex="1" parent="6iExXYZJCIQ0BrOf0lML-965">
          <mxGeometry x="10" y="40" width="10" height="10" as="geometry" />
        </mxCell>
        <mxCell id="6iExXYZJCIQ0BrOf0lML-864" value="" style="rounded=0;whiteSpace=wrap;html=1;strokeColor=#999999;container=0;fillColor=#E6E6E6;" vertex="1" parent="6iExXYZJCIQ0BrOf0lML-965">
          <mxGeometry x="20" y="40" width="10" height="10" as="geometry" />
        </mxCell>
        <mxCell id="6iExXYZJCIQ0BrOf0lML-865" value="" style="rounded=0;whiteSpace=wrap;html=1;strokeColor=#999999;container=0;fillColor=#808080;" vertex="1" parent="6iExXYZJCIQ0BrOf0lML-965">
          <mxGeometry x="30" y="40" width="10" height="10" as="geometry" />
        </mxCell>
        <mxCell id="6iExXYZJCIQ0BrOf0lML-866" value="" style="rounded=0;whiteSpace=wrap;html=1;strokeColor=#999999;container=0;fillColor=#999999;" vertex="1" parent="6iExXYZJCIQ0BrOf0lML-965">
          <mxGeometry x="40" y="40" width="10" height="10" as="geometry" />
        </mxCell>
        <mxCell id="6iExXYZJCIQ0BrOf0lML-867" value="" style="rounded=0;whiteSpace=wrap;html=1;strokeColor=#999999;container=0;fillColor=#CCCCCC;" vertex="1" parent="6iExXYZJCIQ0BrOf0lML-965">
          <mxGeometry x="50" y="40" width="10" height="10" as="geometry" />
        </mxCell>
        <mxCell id="6iExXYZJCIQ0BrOf0lML-868" value="" style="rounded=0;whiteSpace=wrap;html=1;strokeColor=#999999;container=0;fillColor=#E6E6E6;" vertex="1" parent="6iExXYZJCIQ0BrOf0lML-965">
          <mxGeometry x="60" y="40" width="10" height="10" as="geometry" />
        </mxCell>
        <mxCell id="6iExXYZJCIQ0BrOf0lML-869" value="" style="rounded=0;whiteSpace=wrap;html=1;strokeColor=#999999;container=0;" vertex="1" parent="6iExXYZJCIQ0BrOf0lML-965">
          <mxGeometry x="70" y="40" width="10" height="10" as="geometry" />
        </mxCell>
        <mxCell id="6iExXYZJCIQ0BrOf0lML-870" value="" style="rounded=0;whiteSpace=wrap;html=1;strokeColor=#999999;container=0;fillColor=#E6E6E6;" vertex="1" parent="6iExXYZJCIQ0BrOf0lML-965">
          <mxGeometry x="80" y="40" width="10" height="10" as="geometry" />
        </mxCell>
        <mxCell id="6iExXYZJCIQ0BrOf0lML-871" value="" style="rounded=0;whiteSpace=wrap;html=1;strokeColor=#999999;container=0;fillColor=#4D4D4D;" vertex="1" parent="6iExXYZJCIQ0BrOf0lML-965">
          <mxGeometry x="90" y="40" width="10" height="10" as="geometry" />
        </mxCell>
        <mxCell id="6iExXYZJCIQ0BrOf0lML-872" value="" style="rounded=0;whiteSpace=wrap;html=1;strokeColor=#999999;container=0;fillColor=#999999;" vertex="1" parent="6iExXYZJCIQ0BrOf0lML-965">
          <mxGeometry x="100" y="40" width="10" height="10" as="geometry" />
        </mxCell>
        <mxCell id="6iExXYZJCIQ0BrOf0lML-873" value="" style="rounded=0;whiteSpace=wrap;html=1;strokeColor=#999999;container=0;fillColor=#E8E8E8;" vertex="1" parent="6iExXYZJCIQ0BrOf0lML-965">
          <mxGeometry x="110" y="40" width="10" height="10" as="geometry" />
        </mxCell>
        <mxCell id="6iExXYZJCIQ0BrOf0lML-874" value="" style="group;strokeColor=#999999;container=0;" vertex="1" connectable="0" parent="6iExXYZJCIQ0BrOf0lML-965">
          <mxGeometry y="50" width="120" height="10" as="geometry" />
        </mxCell>
        <mxCell id="6iExXYZJCIQ0BrOf0lML-875" value="" style="rounded=0;whiteSpace=wrap;html=1;strokeColor=#999999;container=0;fillColor=#F0F0F0;" vertex="1" parent="6iExXYZJCIQ0BrOf0lML-965">
          <mxGeometry y="50" width="10" height="10" as="geometry" />
        </mxCell>
        <mxCell id="6iExXYZJCIQ0BrOf0lML-876" value="" style="rounded=0;whiteSpace=wrap;html=1;strokeColor=#999999;container=0;fillColor=#F2F2F2;" vertex="1" parent="6iExXYZJCIQ0BrOf0lML-965">
          <mxGeometry x="10" y="50" width="10" height="10" as="geometry" />
        </mxCell>
        <mxCell id="6iExXYZJCIQ0BrOf0lML-877" value="" style="rounded=0;whiteSpace=wrap;html=1;strokeColor=#999999;container=0;fillColor=#E6E6E6;" vertex="1" parent="6iExXYZJCIQ0BrOf0lML-965">
          <mxGeometry x="20" y="50" width="10" height="10" as="geometry" />
        </mxCell>
        <mxCell id="6iExXYZJCIQ0BrOf0lML-878" value="" style="rounded=0;whiteSpace=wrap;html=1;strokeColor=#999999;container=0;fillColor=#808080;" vertex="1" parent="6iExXYZJCIQ0BrOf0lML-965">
          <mxGeometry x="30" y="50" width="10" height="10" as="geometry" />
        </mxCell>
        <mxCell id="6iExXYZJCIQ0BrOf0lML-879" value="" style="rounded=0;whiteSpace=wrap;html=1;strokeColor=#999999;container=0;fillColor=#999999;" vertex="1" parent="6iExXYZJCIQ0BrOf0lML-965">
          <mxGeometry x="40" y="50" width="10" height="10" as="geometry" />
        </mxCell>
        <mxCell id="6iExXYZJCIQ0BrOf0lML-880" value="" style="rounded=0;whiteSpace=wrap;html=1;strokeColor=#999999;container=0;fillColor=#B5B5B5;" vertex="1" parent="6iExXYZJCIQ0BrOf0lML-965">
          <mxGeometry x="50" y="50" width="10" height="10" as="geometry" />
        </mxCell>
        <mxCell id="6iExXYZJCIQ0BrOf0lML-881" value="" style="rounded=0;whiteSpace=wrap;html=1;strokeColor=#999999;container=0;fillColor=#E6E6E6;" vertex="1" parent="6iExXYZJCIQ0BrOf0lML-965">
          <mxGeometry x="60" y="50" width="10" height="10" as="geometry" />
        </mxCell>
        <mxCell id="6iExXYZJCIQ0BrOf0lML-882" value="" style="rounded=0;whiteSpace=wrap;html=1;strokeColor=#999999;container=0;" vertex="1" parent="6iExXYZJCIQ0BrOf0lML-965">
          <mxGeometry x="70" y="50" width="10" height="10" as="geometry" />
        </mxCell>
        <mxCell id="6iExXYZJCIQ0BrOf0lML-883" value="" style="rounded=0;whiteSpace=wrap;html=1;strokeColor=#999999;container=0;fillColor=#E6E6E6;" vertex="1" parent="6iExXYZJCIQ0BrOf0lML-965">
          <mxGeometry x="80" y="50" width="10" height="10" as="geometry" />
        </mxCell>
        <mxCell id="6iExXYZJCIQ0BrOf0lML-884" value="" style="rounded=0;whiteSpace=wrap;html=1;strokeColor=#999999;container=0;fillColor=#4D4D4D;" vertex="1" parent="6iExXYZJCIQ0BrOf0lML-965">
          <mxGeometry x="90" y="50" width="10" height="10" as="geometry" />
        </mxCell>
        <mxCell id="6iExXYZJCIQ0BrOf0lML-885" value="" style="rounded=0;whiteSpace=wrap;html=1;strokeColor=#999999;container=0;fillColor=#999999;" vertex="1" parent="6iExXYZJCIQ0BrOf0lML-965">
          <mxGeometry x="100" y="50" width="10" height="10" as="geometry" />
        </mxCell>
        <mxCell id="6iExXYZJCIQ0BrOf0lML-886" value="" style="rounded=0;whiteSpace=wrap;html=1;strokeColor=#999999;container=0;fillColor=#CCCCCC;" vertex="1" parent="6iExXYZJCIQ0BrOf0lML-965">
          <mxGeometry x="110" y="50" width="10" height="10" as="geometry" />
        </mxCell>
        <mxCell id="6iExXYZJCIQ0BrOf0lML-887" value="" style="group;strokeColor=#999999;container=0;" vertex="1" connectable="0" parent="6iExXYZJCIQ0BrOf0lML-965">
          <mxGeometry y="60" width="120" height="10" as="geometry" />
        </mxCell>
        <mxCell id="6iExXYZJCIQ0BrOf0lML-888" value="" style="rounded=0;whiteSpace=wrap;html=1;strokeColor=#999999;container=0;fillColor=#E6E6E6;" vertex="1" parent="6iExXYZJCIQ0BrOf0lML-965">
          <mxGeometry y="60" width="10" height="10" as="geometry" />
        </mxCell>
        <mxCell id="6iExXYZJCIQ0BrOf0lML-889" value="" style="rounded=0;whiteSpace=wrap;html=1;strokeColor=#999999;container=0;fillColor=#CCCCCC;" vertex="1" parent="6iExXYZJCIQ0BrOf0lML-965">
          <mxGeometry x="10" y="60" width="10" height="10" as="geometry" />
        </mxCell>
        <mxCell id="6iExXYZJCIQ0BrOf0lML-890" value="" style="rounded=0;whiteSpace=wrap;html=1;strokeColor=#999999;container=0;fillColor=#E6E6E6;" vertex="1" parent="6iExXYZJCIQ0BrOf0lML-965">
          <mxGeometry x="20" y="60" width="10" height="10" as="geometry" />
        </mxCell>
        <mxCell id="6iExXYZJCIQ0BrOf0lML-891" value="" style="rounded=0;whiteSpace=wrap;html=1;strokeColor=#999999;container=0;fillColor=#666666;" vertex="1" parent="6iExXYZJCIQ0BrOf0lML-965">
          <mxGeometry x="30" y="60" width="10" height="10" as="geometry" />
        </mxCell>
        <mxCell id="6iExXYZJCIQ0BrOf0lML-892" value="" style="rounded=0;whiteSpace=wrap;html=1;strokeColor=#999999;container=0;fillColor=#999999;" vertex="1" parent="6iExXYZJCIQ0BrOf0lML-965">
          <mxGeometry x="40" y="60" width="10" height="10" as="geometry" />
        </mxCell>
        <mxCell id="6iExXYZJCIQ0BrOf0lML-893" value="" style="rounded=0;whiteSpace=wrap;html=1;strokeColor=#999999;container=0;fillColor=#CCCCCC;" vertex="1" parent="6iExXYZJCIQ0BrOf0lML-965">
          <mxGeometry x="50" y="60" width="10" height="10" as="geometry" />
        </mxCell>
        <mxCell id="6iExXYZJCIQ0BrOf0lML-894" value="" style="rounded=0;whiteSpace=wrap;html=1;strokeColor=#999999;container=0;fillColor=#E6E6E6;" vertex="1" parent="6iExXYZJCIQ0BrOf0lML-965">
          <mxGeometry x="60" y="60" width="10" height="10" as="geometry" />
        </mxCell>
        <mxCell id="6iExXYZJCIQ0BrOf0lML-895" value="" style="rounded=0;whiteSpace=wrap;html=1;strokeColor=#999999;container=0;" vertex="1" parent="6iExXYZJCIQ0BrOf0lML-965">
          <mxGeometry x="70" y="60" width="10" height="10" as="geometry" />
        </mxCell>
        <mxCell id="6iExXYZJCIQ0BrOf0lML-896" value="" style="rounded=0;whiteSpace=wrap;html=1;strokeColor=#999999;container=0;fillColor=#E6E6E6;" vertex="1" parent="6iExXYZJCIQ0BrOf0lML-965">
          <mxGeometry x="80" y="60" width="10" height="10" as="geometry" />
        </mxCell>
        <mxCell id="6iExXYZJCIQ0BrOf0lML-897" value="" style="rounded=0;whiteSpace=wrap;html=1;strokeColor=#999999;container=0;fillColor=#B3B3B3;" vertex="1" parent="6iExXYZJCIQ0BrOf0lML-965">
          <mxGeometry x="90" y="60" width="10" height="10" as="geometry" />
        </mxCell>
        <mxCell id="6iExXYZJCIQ0BrOf0lML-898" value="" style="rounded=0;whiteSpace=wrap;html=1;strokeColor=#999999;container=0;fillColor=#999999;" vertex="1" parent="6iExXYZJCIQ0BrOf0lML-965">
          <mxGeometry x="100" y="60" width="10" height="10" as="geometry" />
        </mxCell>
        <mxCell id="6iExXYZJCIQ0BrOf0lML-899" value="" style="rounded=0;whiteSpace=wrap;html=1;strokeColor=#999999;container=0;fillColor=#CCCCCC;" vertex="1" parent="6iExXYZJCIQ0BrOf0lML-965">
          <mxGeometry x="110" y="60" width="10" height="10" as="geometry" />
        </mxCell>
        <mxCell id="6iExXYZJCIQ0BrOf0lML-900" value="" style="group;strokeColor=#999999;container=0;" vertex="1" connectable="0" parent="6iExXYZJCIQ0BrOf0lML-965">
          <mxGeometry y="70" width="120" height="10" as="geometry" />
        </mxCell>
        <mxCell id="6iExXYZJCIQ0BrOf0lML-901" value="" style="rounded=0;whiteSpace=wrap;html=1;strokeColor=#999999;container=0;fillColor=#B3B3B3;" vertex="1" parent="6iExXYZJCIQ0BrOf0lML-965">
          <mxGeometry y="70" width="10" height="10" as="geometry" />
        </mxCell>
        <mxCell id="6iExXYZJCIQ0BrOf0lML-902" value="" style="rounded=0;whiteSpace=wrap;html=1;strokeColor=#999999;container=0;fillColor=#CCCCCC;" vertex="1" parent="6iExXYZJCIQ0BrOf0lML-965">
          <mxGeometry x="10" y="70" width="10" height="10" as="geometry" />
        </mxCell>
        <mxCell id="6iExXYZJCIQ0BrOf0lML-903" value="" style="rounded=0;whiteSpace=wrap;html=1;strokeColor=#999999;container=0;fillColor=#E6E6E6;" vertex="1" parent="6iExXYZJCIQ0BrOf0lML-965">
          <mxGeometry x="20" y="70" width="10" height="10" as="geometry" />
        </mxCell>
        <mxCell id="6iExXYZJCIQ0BrOf0lML-904" value="" style="rounded=0;whiteSpace=wrap;html=1;strokeColor=#999999;container=0;fillColor=#808080;" vertex="1" parent="6iExXYZJCIQ0BrOf0lML-965">
          <mxGeometry x="30" y="70" width="10" height="10" as="geometry" />
        </mxCell>
        <mxCell id="6iExXYZJCIQ0BrOf0lML-905" value="" style="rounded=0;whiteSpace=wrap;html=1;strokeColor=#999999;container=0;fillColor=#999999;" vertex="1" parent="6iExXYZJCIQ0BrOf0lML-965">
          <mxGeometry x="40" y="70" width="10" height="10" as="geometry" />
        </mxCell>
        <mxCell id="6iExXYZJCIQ0BrOf0lML-906" value="" style="rounded=0;whiteSpace=wrap;html=1;strokeColor=#999999;container=0;fillColor=#E8E8E8;" vertex="1" parent="6iExXYZJCIQ0BrOf0lML-965">
          <mxGeometry x="50" y="70" width="10" height="10" as="geometry" />
        </mxCell>
        <mxCell id="6iExXYZJCIQ0BrOf0lML-907" value="" style="rounded=0;whiteSpace=wrap;html=1;strokeColor=#999999;container=0;fillColor=#E6E6E6;" vertex="1" parent="6iExXYZJCIQ0BrOf0lML-965">
          <mxGeometry x="60" y="70" width="10" height="10" as="geometry" />
        </mxCell>
        <mxCell id="6iExXYZJCIQ0BrOf0lML-908" value="" style="rounded=0;whiteSpace=wrap;html=1;strokeColor=#999999;container=0;" vertex="1" parent="6iExXYZJCIQ0BrOf0lML-965">
          <mxGeometry x="70" y="70" width="10" height="10" as="geometry" />
        </mxCell>
        <mxCell id="6iExXYZJCIQ0BrOf0lML-909" value="" style="rounded=0;whiteSpace=wrap;html=1;strokeColor=#999999;container=0;fillColor=#E6E6E6;" vertex="1" parent="6iExXYZJCIQ0BrOf0lML-965">
          <mxGeometry x="80" y="70" width="10" height="10" as="geometry" />
        </mxCell>
        <mxCell id="6iExXYZJCIQ0BrOf0lML-910" value="" style="rounded=0;whiteSpace=wrap;html=1;strokeColor=#999999;container=0;fillColor=#4D4D4D;" vertex="1" parent="6iExXYZJCIQ0BrOf0lML-965">
          <mxGeometry x="90" y="70" width="10" height="10" as="geometry" />
        </mxCell>
        <mxCell id="6iExXYZJCIQ0BrOf0lML-911" value="" style="rounded=0;whiteSpace=wrap;html=1;strokeColor=#999999;container=0;fillColor=#999999;" vertex="1" parent="6iExXYZJCIQ0BrOf0lML-965">
          <mxGeometry x="100" y="70" width="10" height="10" as="geometry" />
        </mxCell>
        <mxCell id="6iExXYZJCIQ0BrOf0lML-912" value="" style="rounded=0;whiteSpace=wrap;html=1;strokeColor=#999999;container=0;fillColor=#CCCCCC;" vertex="1" parent="6iExXYZJCIQ0BrOf0lML-965">
          <mxGeometry x="110" y="70" width="10" height="10" as="geometry" />
        </mxCell>
        <mxCell id="6iExXYZJCIQ0BrOf0lML-913" value="" style="group;strokeColor=#999999;container=0;" vertex="1" connectable="0" parent="6iExXYZJCIQ0BrOf0lML-965">
          <mxGeometry y="80" width="120" height="10" as="geometry" />
        </mxCell>
        <mxCell id="6iExXYZJCIQ0BrOf0lML-914" value="" style="rounded=0;whiteSpace=wrap;html=1;strokeColor=#999999;container=0;fillColor=#E6E6E6;" vertex="1" parent="6iExXYZJCIQ0BrOf0lML-965">
          <mxGeometry y="80" width="10" height="10" as="geometry" />
        </mxCell>
        <mxCell id="6iExXYZJCIQ0BrOf0lML-915" value="" style="rounded=0;whiteSpace=wrap;html=1;strokeColor=#999999;container=0;fillColor=#CCCCCC;" vertex="1" parent="6iExXYZJCIQ0BrOf0lML-965">
          <mxGeometry x="10" y="80" width="10" height="10" as="geometry" />
        </mxCell>
        <mxCell id="6iExXYZJCIQ0BrOf0lML-916" value="" style="rounded=0;whiteSpace=wrap;html=1;strokeColor=#999999;container=0;fillColor=#B3B3B3;" vertex="1" parent="6iExXYZJCIQ0BrOf0lML-965">
          <mxGeometry x="20" y="80" width="10" height="10" as="geometry" />
        </mxCell>
        <mxCell id="6iExXYZJCIQ0BrOf0lML-917" value="" style="rounded=0;whiteSpace=wrap;html=1;strokeColor=#999999;container=0;fillColor=#808080;" vertex="1" parent="6iExXYZJCIQ0BrOf0lML-965">
          <mxGeometry x="30" y="80" width="10" height="10" as="geometry" />
        </mxCell>
        <mxCell id="6iExXYZJCIQ0BrOf0lML-918" value="" style="rounded=0;whiteSpace=wrap;html=1;strokeColor=#999999;container=0;fillColor=#666666;" vertex="1" parent="6iExXYZJCIQ0BrOf0lML-965">
          <mxGeometry x="40" y="80" width="10" height="10" as="geometry" />
        </mxCell>
        <mxCell id="6iExXYZJCIQ0BrOf0lML-919" value="" style="rounded=0;whiteSpace=wrap;html=1;strokeColor=#999999;container=0;fillColor=#CCCCCC;" vertex="1" parent="6iExXYZJCIQ0BrOf0lML-965">
          <mxGeometry x="50" y="80" width="10" height="10" as="geometry" />
        </mxCell>
        <mxCell id="6iExXYZJCIQ0BrOf0lML-920" value="" style="rounded=0;whiteSpace=wrap;html=1;strokeColor=#999999;container=0;fillColor=#E6E6E6;" vertex="1" parent="6iExXYZJCIQ0BrOf0lML-965">
          <mxGeometry x="60" y="80" width="10" height="10" as="geometry" />
        </mxCell>
        <mxCell id="6iExXYZJCIQ0BrOf0lML-921" value="" style="rounded=0;whiteSpace=wrap;html=1;strokeColor=#999999;container=0;fillColor=#E6E6E6;" vertex="1" parent="6iExXYZJCIQ0BrOf0lML-965">
          <mxGeometry x="70" y="80" width="10" height="10" as="geometry" />
        </mxCell>
        <mxCell id="6iExXYZJCIQ0BrOf0lML-922" value="" style="rounded=0;whiteSpace=wrap;html=1;strokeColor=#999999;container=0;fillColor=#E6E6E6;" vertex="1" parent="6iExXYZJCIQ0BrOf0lML-965">
          <mxGeometry x="80" y="80" width="10" height="10" as="geometry" />
        </mxCell>
        <mxCell id="6iExXYZJCIQ0BrOf0lML-923" value="" style="rounded=0;whiteSpace=wrap;html=1;strokeColor=#999999;container=0;fillColor=#4D4D4D;" vertex="1" parent="6iExXYZJCIQ0BrOf0lML-965">
          <mxGeometry x="90" y="80" width="10" height="10" as="geometry" />
        </mxCell>
        <mxCell id="6iExXYZJCIQ0BrOf0lML-924" value="" style="rounded=0;whiteSpace=wrap;html=1;strokeColor=#999999;container=0;fillColor=#D9D9D9;" vertex="1" parent="6iExXYZJCIQ0BrOf0lML-965">
          <mxGeometry x="100" y="80" width="10" height="10" as="geometry" />
        </mxCell>
        <mxCell id="6iExXYZJCIQ0BrOf0lML-925" value="" style="rounded=0;whiteSpace=wrap;html=1;strokeColor=#999999;container=0;fillColor=#CCCCCC;" vertex="1" parent="6iExXYZJCIQ0BrOf0lML-965">
          <mxGeometry x="110" y="80" width="10" height="10" as="geometry" />
        </mxCell>
        <mxCell id="6iExXYZJCIQ0BrOf0lML-926" value="" style="group;strokeColor=#999999;container=0;" vertex="1" connectable="0" parent="6iExXYZJCIQ0BrOf0lML-965">
          <mxGeometry y="90" width="120" height="10" as="geometry" />
        </mxCell>
        <mxCell id="6iExXYZJCIQ0BrOf0lML-927" value="" style="rounded=0;whiteSpace=wrap;html=1;strokeColor=#999999;container=0;fillColor=#F7F7F7;" vertex="1" parent="6iExXYZJCIQ0BrOf0lML-965">
          <mxGeometry y="90" width="10" height="10" as="geometry" />
        </mxCell>
        <mxCell id="6iExXYZJCIQ0BrOf0lML-928" value="" style="rounded=0;whiteSpace=wrap;html=1;strokeColor=#999999;container=0;fillColor=#B8B8B8;" vertex="1" parent="6iExXYZJCIQ0BrOf0lML-965">
          <mxGeometry x="10" y="90" width="10" height="10" as="geometry" />
        </mxCell>
        <mxCell id="6iExXYZJCIQ0BrOf0lML-929" value="" style="rounded=0;whiteSpace=wrap;html=1;strokeColor=#999999;container=0;fillColor=#E6E6E6;" vertex="1" parent="6iExXYZJCIQ0BrOf0lML-965">
          <mxGeometry x="20" y="90" width="10" height="10" as="geometry" />
        </mxCell>
        <mxCell id="6iExXYZJCIQ0BrOf0lML-930" value="" style="rounded=0;whiteSpace=wrap;html=1;strokeColor=#999999;container=0;fillColor=#808080;" vertex="1" parent="6iExXYZJCIQ0BrOf0lML-965">
          <mxGeometry x="30" y="90" width="10" height="10" as="geometry" />
        </mxCell>
        <mxCell id="6iExXYZJCIQ0BrOf0lML-931" value="" style="rounded=0;whiteSpace=wrap;html=1;strokeColor=#999999;container=0;fillColor=#999999;" vertex="1" parent="6iExXYZJCIQ0BrOf0lML-965">
          <mxGeometry x="40" y="90" width="10" height="10" as="geometry" />
        </mxCell>
        <mxCell id="6iExXYZJCIQ0BrOf0lML-932" value="" style="rounded=0;whiteSpace=wrap;html=1;strokeColor=#999999;container=0;fillColor=#CCCCCC;" vertex="1" parent="6iExXYZJCIQ0BrOf0lML-965">
          <mxGeometry x="50" y="90" width="10" height="10" as="geometry" />
        </mxCell>
        <mxCell id="6iExXYZJCIQ0BrOf0lML-933" value="" style="rounded=0;whiteSpace=wrap;html=1;strokeColor=#999999;container=0;fillColor=#E6E6E6;" vertex="1" parent="6iExXYZJCIQ0BrOf0lML-965">
          <mxGeometry x="60" y="90" width="10" height="10" as="geometry" />
        </mxCell>
        <mxCell id="6iExXYZJCIQ0BrOf0lML-934" value="" style="rounded=0;whiteSpace=wrap;html=1;strokeColor=#999999;container=0;" vertex="1" parent="6iExXYZJCIQ0BrOf0lML-965">
          <mxGeometry x="70" y="90" width="10" height="10" as="geometry" />
        </mxCell>
        <mxCell id="6iExXYZJCIQ0BrOf0lML-935" value="" style="rounded=0;whiteSpace=wrap;html=1;strokeColor=#999999;container=0;fillColor=#E6E6E6;" vertex="1" parent="6iExXYZJCIQ0BrOf0lML-965">
          <mxGeometry x="80" y="90" width="10" height="10" as="geometry" />
        </mxCell>
        <mxCell id="6iExXYZJCIQ0BrOf0lML-936" value="" style="rounded=0;whiteSpace=wrap;html=1;strokeColor=#999999;container=0;fillColor=#4D4D4D;" vertex="1" parent="6iExXYZJCIQ0BrOf0lML-965">
          <mxGeometry x="90" y="90" width="10" height="10" as="geometry" />
        </mxCell>
        <mxCell id="6iExXYZJCIQ0BrOf0lML-937" value="" style="rounded=0;whiteSpace=wrap;html=1;strokeColor=#999999;container=0;fillColor=#999999;" vertex="1" parent="6iExXYZJCIQ0BrOf0lML-965">
          <mxGeometry x="100" y="90" width="10" height="10" as="geometry" />
        </mxCell>
        <mxCell id="6iExXYZJCIQ0BrOf0lML-938" value="" style="rounded=0;whiteSpace=wrap;html=1;strokeColor=#999999;container=0;fillColor=#DBDBDB;" vertex="1" parent="6iExXYZJCIQ0BrOf0lML-965">
          <mxGeometry x="110" y="90" width="10" height="10" as="geometry" />
        </mxCell>
        <mxCell id="6iExXYZJCIQ0BrOf0lML-939" value="" style="group;strokeColor=#999999;container=0;" vertex="1" connectable="0" parent="6iExXYZJCIQ0BrOf0lML-965">
          <mxGeometry y="100" width="120" height="10" as="geometry" />
        </mxCell>
        <mxCell id="6iExXYZJCIQ0BrOf0lML-940" value="" style="rounded=0;whiteSpace=wrap;html=1;strokeColor=#999999;container=0;fillColor=#E6E6E6;" vertex="1" parent="6iExXYZJCIQ0BrOf0lML-965">
          <mxGeometry y="100" width="10" height="10" as="geometry" />
        </mxCell>
        <mxCell id="6iExXYZJCIQ0BrOf0lML-941" value="" style="rounded=0;whiteSpace=wrap;html=1;strokeColor=#999999;container=0;fillColor=#CCCCCC;" vertex="1" parent="6iExXYZJCIQ0BrOf0lML-965">
          <mxGeometry x="10" y="100" width="10" height="10" as="geometry" />
        </mxCell>
        <mxCell id="6iExXYZJCIQ0BrOf0lML-942" value="" style="rounded=0;whiteSpace=wrap;html=1;strokeColor=#999999;container=0;fillColor=#E6E6E6;" vertex="1" parent="6iExXYZJCIQ0BrOf0lML-965">
          <mxGeometry x="20" y="100" width="10" height="10" as="geometry" />
        </mxCell>
        <mxCell id="6iExXYZJCIQ0BrOf0lML-943" value="" style="rounded=0;whiteSpace=wrap;html=1;strokeColor=#999999;container=0;fillColor=#808080;" vertex="1" parent="6iExXYZJCIQ0BrOf0lML-965">
          <mxGeometry x="30" y="100" width="10" height="10" as="geometry" />
        </mxCell>
        <mxCell id="6iExXYZJCIQ0BrOf0lML-944" value="" style="rounded=0;whiteSpace=wrap;html=1;strokeColor=#999999;container=0;fillColor=#999999;" vertex="1" parent="6iExXYZJCIQ0BrOf0lML-965">
          <mxGeometry x="40" y="100" width="10" height="10" as="geometry" />
        </mxCell>
        <mxCell id="6iExXYZJCIQ0BrOf0lML-945" value="" style="rounded=0;whiteSpace=wrap;html=1;strokeColor=#999999;container=0;fillColor=#CCCCCC;" vertex="1" parent="6iExXYZJCIQ0BrOf0lML-965">
          <mxGeometry x="50" y="100" width="10" height="10" as="geometry" />
        </mxCell>
        <mxCell id="6iExXYZJCIQ0BrOf0lML-946" value="" style="rounded=0;whiteSpace=wrap;html=1;strokeColor=#999999;container=0;fillColor=#F5F5F5;" vertex="1" parent="6iExXYZJCIQ0BrOf0lML-965">
          <mxGeometry x="60" y="100" width="10" height="10" as="geometry" />
        </mxCell>
        <mxCell id="6iExXYZJCIQ0BrOf0lML-947" value="" style="rounded=0;whiteSpace=wrap;html=1;strokeColor=#999999;container=0;" vertex="1" parent="6iExXYZJCIQ0BrOf0lML-965">
          <mxGeometry x="70" y="100" width="10" height="10" as="geometry" />
        </mxCell>
        <mxCell id="6iExXYZJCIQ0BrOf0lML-948" value="" style="rounded=0;whiteSpace=wrap;html=1;strokeColor=#999999;container=0;fillColor=#E6E6E6;" vertex="1" parent="6iExXYZJCIQ0BrOf0lML-965">
          <mxGeometry x="80" y="100" width="10" height="10" as="geometry" />
        </mxCell>
        <mxCell id="6iExXYZJCIQ0BrOf0lML-949" value="" style="rounded=0;whiteSpace=wrap;html=1;strokeColor=#999999;container=0;fillColor=#4D4D4D;" vertex="1" parent="6iExXYZJCIQ0BrOf0lML-965">
          <mxGeometry x="90" y="100" width="10" height="10" as="geometry" />
        </mxCell>
        <mxCell id="6iExXYZJCIQ0BrOf0lML-950" value="" style="rounded=0;whiteSpace=wrap;html=1;strokeColor=#999999;container=0;fillColor=#999999;" vertex="1" parent="6iExXYZJCIQ0BrOf0lML-965">
          <mxGeometry x="100" y="100" width="10" height="10" as="geometry" />
        </mxCell>
        <mxCell id="6iExXYZJCIQ0BrOf0lML-951" value="" style="rounded=0;whiteSpace=wrap;html=1;strokeColor=#999999;container=0;fillColor=#CCCCCC;" vertex="1" parent="6iExXYZJCIQ0BrOf0lML-965">
          <mxGeometry x="110" y="100" width="10" height="10" as="geometry" />
        </mxCell>
        <mxCell id="6iExXYZJCIQ0BrOf0lML-952" value="" style="group;strokeColor=#999999;container=0;" vertex="1" connectable="0" parent="6iExXYZJCIQ0BrOf0lML-965">
          <mxGeometry y="110" width="120" height="10" as="geometry" />
        </mxCell>
        <mxCell id="6iExXYZJCIQ0BrOf0lML-953" value="" style="rounded=0;whiteSpace=wrap;html=1;strokeColor=#999999;container=0;fillColor=#E6E6E6;" vertex="1" parent="6iExXYZJCIQ0BrOf0lML-965">
          <mxGeometry y="110" width="10" height="10" as="geometry" />
        </mxCell>
        <mxCell id="6iExXYZJCIQ0BrOf0lML-954" value="" style="rounded=0;whiteSpace=wrap;html=1;strokeColor=#999999;container=0;fillColor=#CCCCCC;" vertex="1" parent="6iExXYZJCIQ0BrOf0lML-965">
          <mxGeometry x="10" y="110" width="10" height="10" as="geometry" />
        </mxCell>
        <mxCell id="6iExXYZJCIQ0BrOf0lML-955" value="" style="rounded=0;whiteSpace=wrap;html=1;strokeColor=#999999;container=0;fillColor=#E6E6E6;" vertex="1" parent="6iExXYZJCIQ0BrOf0lML-965">
          <mxGeometry x="20" y="110" width="10" height="10" as="geometry" />
        </mxCell>
        <mxCell id="6iExXYZJCIQ0BrOf0lML-956" value="" style="rounded=0;whiteSpace=wrap;html=1;strokeColor=#999999;container=0;fillColor=#808080;" vertex="1" parent="6iExXYZJCIQ0BrOf0lML-965">
          <mxGeometry x="30" y="110" width="10" height="10" as="geometry" />
        </mxCell>
        <mxCell id="6iExXYZJCIQ0BrOf0lML-957" value="" style="rounded=0;whiteSpace=wrap;html=1;strokeColor=#999999;container=0;fillColor=#999999;" vertex="1" parent="6iExXYZJCIQ0BrOf0lML-965">
          <mxGeometry x="40" y="110" width="10" height="10" as="geometry" />
        </mxCell>
        <mxCell id="6iExXYZJCIQ0BrOf0lML-958" value="" style="rounded=0;whiteSpace=wrap;html=1;strokeColor=#999999;container=0;fillColor=#F2F2F2;" vertex="1" parent="6iExXYZJCIQ0BrOf0lML-965">
          <mxGeometry x="50" y="110" width="10" height="10" as="geometry" />
        </mxCell>
        <mxCell id="6iExXYZJCIQ0BrOf0lML-959" value="" style="rounded=0;whiteSpace=wrap;html=1;strokeColor=#999999;container=0;fillColor=#E6E6E6;" vertex="1" parent="6iExXYZJCIQ0BrOf0lML-965">
          <mxGeometry x="60" y="110" width="10" height="10" as="geometry" />
        </mxCell>
        <mxCell id="6iExXYZJCIQ0BrOf0lML-960" value="" style="rounded=0;whiteSpace=wrap;html=1;strokeColor=#999999;container=0;" vertex="1" parent="6iExXYZJCIQ0BrOf0lML-965">
          <mxGeometry x="70" y="110" width="10" height="10" as="geometry" />
        </mxCell>
        <mxCell id="6iExXYZJCIQ0BrOf0lML-961" value="" style="rounded=0;whiteSpace=wrap;html=1;strokeColor=#999999;container=0;fillColor=#E6E6E6;" vertex="1" parent="6iExXYZJCIQ0BrOf0lML-965">
          <mxGeometry x="80" y="110" width="10" height="10" as="geometry" />
        </mxCell>
        <mxCell id="6iExXYZJCIQ0BrOf0lML-962" value="" style="rounded=0;whiteSpace=wrap;html=1;strokeColor=#999999;container=0;fillColor=#4D4D4D;" vertex="1" parent="6iExXYZJCIQ0BrOf0lML-965">
          <mxGeometry x="90" y="110" width="10" height="10" as="geometry" />
        </mxCell>
        <mxCell id="6iExXYZJCIQ0BrOf0lML-963" value="" style="rounded=0;whiteSpace=wrap;html=1;strokeColor=#999999;container=0;fillColor=#B3B3B3;" vertex="1" parent="6iExXYZJCIQ0BrOf0lML-965">
          <mxGeometry x="100" y="110" width="10" height="10" as="geometry" />
        </mxCell>
        <mxCell id="6iExXYZJCIQ0BrOf0lML-964" value="" style="rounded=0;whiteSpace=wrap;html=1;strokeColor=#999999;container=0;fillColor=#CCCCCC;" vertex="1" parent="6iExXYZJCIQ0BrOf0lML-965">
          <mxGeometry x="110" y="110" width="10" height="10" as="geometry" />
        </mxCell>
        <mxCell id="6iExXYZJCIQ0BrOf0lML-1" value="&lt;font face=&quot;Times New Roman&quot;&gt;&lt;b&gt;Original Model&lt;/b&gt;&lt;/font&gt;" style="rounded=1;whiteSpace=wrap;html=1;arcSize=6;fillColor=#FCFCFC;" vertex="1" parent="1">
          <mxGeometry x="170" y="140" width="120" height="120" as="geometry" />
        </mxCell>
        <mxCell id="6iExXYZJCIQ0BrOf0lML-2" value="" style="shape=trapezoid;perimeter=trapezoidPerimeter;whiteSpace=wrap;html=1;fixedSize=1;size=10;fillColor=#ffe6cc;strokeColor=#d79b00;" vertex="1" parent="1">
          <mxGeometry x="130" y="340" width="40" height="10" as="geometry" />
        </mxCell>
        <mxCell id="6iExXYZJCIQ0BrOf0lML-3" value="" style="shape=trapezoid;perimeter=trapezoidPerimeter;whiteSpace=wrap;html=1;fixedSize=1;size=10;rotation=-180;fillColor=#ffe6cc;strokeColor=#d79b00;" vertex="1" parent="1">
          <mxGeometry x="130" y="320" width="40" height="10" as="geometry" />
        </mxCell>
        <mxCell id="6iExXYZJCIQ0BrOf0lML-4" value="" style="shape=trapezoid;perimeter=trapezoidPerimeter;whiteSpace=wrap;html=1;fixedSize=1;size=10;fillColor=#fff2cc;strokeColor=#d6b656;" vertex="1" parent="1">
          <mxGeometry x="190" y="340" width="40" height="10" as="geometry" />
        </mxCell>
        <mxCell id="6iExXYZJCIQ0BrOf0lML-5" value="" style="shape=trapezoid;perimeter=trapezoidPerimeter;whiteSpace=wrap;html=1;fixedSize=1;size=10;rotation=-180;fillColor=#fff2cc;strokeColor=#d6b656;" vertex="1" parent="1">
          <mxGeometry x="190" y="320" width="40" height="10" as="geometry" />
        </mxCell>
        <mxCell id="6iExXYZJCIQ0BrOf0lML-6" value="" style="shape=trapezoid;perimeter=trapezoidPerimeter;whiteSpace=wrap;html=1;fixedSize=1;size=10;fillColor=#f8cecc;strokeColor=#b85450;" vertex="1" parent="1">
          <mxGeometry x="250" y="340" width="40" height="10" as="geometry" />
        </mxCell>
        <mxCell id="6iExXYZJCIQ0BrOf0lML-7" value="" style="shape=trapezoid;perimeter=trapezoidPerimeter;whiteSpace=wrap;html=1;fixedSize=1;size=10;rotation=-180;fillColor=#f8cecc;strokeColor=#b85450;" vertex="1" parent="1">
          <mxGeometry x="250" y="320" width="40" height="10" as="geometry" />
        </mxCell>
        <mxCell id="6iExXYZJCIQ0BrOf0lML-8" value="" style="shape=trapezoid;perimeter=trapezoidPerimeter;whiteSpace=wrap;html=1;fixedSize=1;size=10;fillColor=#e1d5e7;strokeColor=#9673a6;" vertex="1" parent="1">
          <mxGeometry x="310" y="340" width="40" height="10" as="geometry" />
        </mxCell>
        <mxCell id="6iExXYZJCIQ0BrOf0lML-9" value="" style="shape=trapezoid;perimeter=trapezoidPerimeter;whiteSpace=wrap;html=1;fixedSize=1;size=10;rotation=-180;fillColor=#e1d5e7;strokeColor=#9673a6;" vertex="1" parent="1">
          <mxGeometry x="310" y="320" width="40" height="10" as="geometry" />
        </mxCell>
        <mxCell id="6iExXYZJCIQ0BrOf0lML-10" value="&lt;font face=&quot;Times New Roman&quot;&gt;LoRA for domains&lt;/font&gt;" style="text;html=1;strokeColor=none;fillColor=none;align=center;verticalAlign=middle;whiteSpace=wrap;rounded=0;" vertex="1" parent="1">
          <mxGeometry x="180" y="350" width="120" height="30" as="geometry" />
        </mxCell>
        <mxCell id="6iExXYZJCIQ0BrOf0lML-11" value="" style="shape=flexArrow;endArrow=classic;html=1;rounded=0;width=6.857142857142857;endSize=2.6666666666666665;endWidth=10.380952380952381;" edge="1" parent="1">
          <mxGeometry width="50" height="50" relative="1" as="geometry">
            <mxPoint x="370" y="340" as="sourcePoint" />
            <mxPoint x="420" y="340" as="targetPoint" />
          </mxGeometry>
        </mxCell>
        <mxCell id="6iExXYZJCIQ0BrOf0lML-191" value="&lt;font face=&quot;Times New Roman&quot;&gt;sum&lt;br&gt;normalize&lt;br&gt;&lt;/font&gt;" style="edgeLabel;html=1;align=center;verticalAlign=middle;resizable=0;points=[];" vertex="1" connectable="0" parent="6iExXYZJCIQ0BrOf0lML-11">
          <mxGeometry x="-0.2533" relative="1" as="geometry">
            <mxPoint x="3" y="25" as="offset" />
          </mxGeometry>
        </mxCell>
        <mxCell id="6iExXYZJCIQ0BrOf0lML-12" value="" style="shape=flexArrow;endArrow=classic;html=1;rounded=0;width=6.857142857142857;endSize=2.6666666666666665;endWidth=10.380952380952381;" edge="1" parent="1">
          <mxGeometry width="50" height="50" relative="1" as="geometry">
            <mxPoint x="370" y="219.71" as="sourcePoint" />
            <mxPoint x="420" y="219.71" as="targetPoint" />
          </mxGeometry>
        </mxCell>
        <mxCell id="6iExXYZJCIQ0BrOf0lML-968" value="&lt;font face=&quot;Times New Roman&quot;&gt;extract&lt;/font&gt;" style="edgeLabel;html=1;align=center;verticalAlign=middle;resizable=0;points=[];" vertex="1" connectable="0" parent="6iExXYZJCIQ0BrOf0lML-12">
          <mxGeometry x="-0.3022" y="-7" relative="1" as="geometry">
            <mxPoint x="3" y="7" as="offset" />
          </mxGeometry>
        </mxCell>
        <mxCell id="6iExXYZJCIQ0BrOf0lML-336" value="" style="group" vertex="1" connectable="0" parent="1">
          <mxGeometry x="430" y="320" width="120" height="120" as="geometry" />
        </mxCell>
        <mxCell id="6iExXYZJCIQ0BrOf0lML-138" value="" style="group;strokeColor=#999999;container=0;" vertex="1" connectable="0" parent="6iExXYZJCIQ0BrOf0lML-336">
          <mxGeometry width="120" height="10" as="geometry" />
        </mxCell>
        <mxCell id="6iExXYZJCIQ0BrOf0lML-139" value="" style="rounded=0;whiteSpace=wrap;html=1;strokeColor=#999999;container=0;fillColor=#E6E6E6;" vertex="1" parent="6iExXYZJCIQ0BrOf0lML-336">
          <mxGeometry width="10" height="10" as="geometry" />
        </mxCell>
        <mxCell id="6iExXYZJCIQ0BrOf0lML-140" value="" style="rounded=0;whiteSpace=wrap;html=1;strokeColor=#999999;container=0;fillColor=#CCCCCC;" vertex="1" parent="6iExXYZJCIQ0BrOf0lML-336">
          <mxGeometry x="10" width="10" height="10" as="geometry" />
        </mxCell>
        <mxCell id="6iExXYZJCIQ0BrOf0lML-141" value="" style="rounded=0;whiteSpace=wrap;html=1;strokeColor=#999999;container=0;fillColor=#E6E6E6;" vertex="1" parent="6iExXYZJCIQ0BrOf0lML-336">
          <mxGeometry x="20" width="10" height="10" as="geometry" />
        </mxCell>
        <mxCell id="6iExXYZJCIQ0BrOf0lML-142" value="" style="rounded=0;whiteSpace=wrap;html=1;strokeColor=#999999;container=0;fillColor=#808080;" vertex="1" parent="6iExXYZJCIQ0BrOf0lML-336">
          <mxGeometry x="30" width="10" height="10" as="geometry" />
        </mxCell>
        <mxCell id="6iExXYZJCIQ0BrOf0lML-143" value="" style="rounded=0;whiteSpace=wrap;html=1;strokeColor=#999999;container=0;fillColor=#999999;" vertex="1" parent="6iExXYZJCIQ0BrOf0lML-336">
          <mxGeometry x="40" width="10" height="10" as="geometry" />
        </mxCell>
        <mxCell id="6iExXYZJCIQ0BrOf0lML-144" value="" style="rounded=0;whiteSpace=wrap;html=1;strokeColor=#999999;container=0;fillColor=#CCCCCC;" vertex="1" parent="6iExXYZJCIQ0BrOf0lML-336">
          <mxGeometry x="50" width="10" height="10" as="geometry" />
        </mxCell>
        <mxCell id="6iExXYZJCIQ0BrOf0lML-145" value="" style="rounded=0;whiteSpace=wrap;html=1;strokeColor=#999999;container=0;fillColor=#F2F2F2;" vertex="1" parent="6iExXYZJCIQ0BrOf0lML-336">
          <mxGeometry x="60" width="10" height="10" as="geometry" />
        </mxCell>
        <mxCell id="6iExXYZJCIQ0BrOf0lML-146" value="" style="rounded=0;whiteSpace=wrap;html=1;strokeColor=#999999;container=0;fillColor=#E6E6E6;" vertex="1" parent="6iExXYZJCIQ0BrOf0lML-336">
          <mxGeometry x="70" width="10" height="10" as="geometry" />
        </mxCell>
        <mxCell id="6iExXYZJCIQ0BrOf0lML-147" value="" style="rounded=0;whiteSpace=wrap;html=1;strokeColor=#999999;container=0;fillColor=#E6E6E6;" vertex="1" parent="6iExXYZJCIQ0BrOf0lML-336">
          <mxGeometry x="80" width="10" height="10" as="geometry" />
        </mxCell>
        <mxCell id="6iExXYZJCIQ0BrOf0lML-148" value="" style="rounded=0;whiteSpace=wrap;html=1;strokeColor=#999999;container=0;fillColor=#4D4D4D;" vertex="1" parent="6iExXYZJCIQ0BrOf0lML-336">
          <mxGeometry x="90" width="10" height="10" as="geometry" />
        </mxCell>
        <mxCell id="6iExXYZJCIQ0BrOf0lML-149" value="" style="rounded=0;whiteSpace=wrap;html=1;strokeColor=#999999;container=0;fillColor=#999999;" vertex="1" parent="6iExXYZJCIQ0BrOf0lML-336">
          <mxGeometry x="100" width="10" height="10" as="geometry" />
        </mxCell>
        <mxCell id="6iExXYZJCIQ0BrOf0lML-150" value="" style="rounded=0;whiteSpace=wrap;html=1;strokeColor=#999999;container=0;fillColor=#CCCCCC;" vertex="1" parent="6iExXYZJCIQ0BrOf0lML-336">
          <mxGeometry x="110" width="10" height="10" as="geometry" />
        </mxCell>
        <mxCell id="6iExXYZJCIQ0BrOf0lML-192" value="" style="group;strokeColor=#999999;container=0;" vertex="1" connectable="0" parent="6iExXYZJCIQ0BrOf0lML-336">
          <mxGeometry y="10" width="120" height="10" as="geometry" />
        </mxCell>
        <mxCell id="6iExXYZJCIQ0BrOf0lML-193" value="" style="rounded=0;whiteSpace=wrap;html=1;strokeColor=#999999;container=0;fillColor=#D4D4D4;" vertex="1" parent="6iExXYZJCIQ0BrOf0lML-336">
          <mxGeometry y="10" width="10" height="10" as="geometry" />
        </mxCell>
        <mxCell id="6iExXYZJCIQ0BrOf0lML-194" value="" style="rounded=0;whiteSpace=wrap;html=1;strokeColor=#999999;container=0;fillColor=#CCCCCC;" vertex="1" parent="6iExXYZJCIQ0BrOf0lML-336">
          <mxGeometry x="10" y="10" width="10" height="10" as="geometry" />
        </mxCell>
        <mxCell id="6iExXYZJCIQ0BrOf0lML-195" value="" style="rounded=0;whiteSpace=wrap;html=1;strokeColor=#999999;container=0;fillColor=#E6E6E6;" vertex="1" parent="6iExXYZJCIQ0BrOf0lML-336">
          <mxGeometry x="20" y="10" width="10" height="10" as="geometry" />
        </mxCell>
        <mxCell id="6iExXYZJCIQ0BrOf0lML-196" value="" style="rounded=0;whiteSpace=wrap;html=1;strokeColor=#999999;container=0;fillColor=#666666;" vertex="1" parent="6iExXYZJCIQ0BrOf0lML-336">
          <mxGeometry x="30" y="10" width="10" height="10" as="geometry" />
        </mxCell>
        <mxCell id="6iExXYZJCIQ0BrOf0lML-197" value="" style="rounded=0;whiteSpace=wrap;html=1;strokeColor=#999999;container=0;fillColor=#999999;" vertex="1" parent="6iExXYZJCIQ0BrOf0lML-336">
          <mxGeometry x="40" y="10" width="10" height="10" as="geometry" />
        </mxCell>
        <mxCell id="6iExXYZJCIQ0BrOf0lML-198" value="" style="rounded=0;whiteSpace=wrap;html=1;strokeColor=#999999;container=0;fillColor=#CCCCCC;" vertex="1" parent="6iExXYZJCIQ0BrOf0lML-336">
          <mxGeometry x="50" y="10" width="10" height="10" as="geometry" />
        </mxCell>
        <mxCell id="6iExXYZJCIQ0BrOf0lML-199" value="" style="rounded=0;whiteSpace=wrap;html=1;strokeColor=#999999;container=0;fillColor=#E6E6E6;" vertex="1" parent="6iExXYZJCIQ0BrOf0lML-336">
          <mxGeometry x="60" y="10" width="10" height="10" as="geometry" />
        </mxCell>
        <mxCell id="6iExXYZJCIQ0BrOf0lML-200" value="" style="rounded=0;whiteSpace=wrap;html=1;strokeColor=#999999;container=0;" vertex="1" parent="6iExXYZJCIQ0BrOf0lML-336">
          <mxGeometry x="70" y="10" width="10" height="10" as="geometry" />
        </mxCell>
        <mxCell id="6iExXYZJCIQ0BrOf0lML-201" value="" style="rounded=0;whiteSpace=wrap;html=1;strokeColor=#999999;container=0;fillColor=#E6E6E6;" vertex="1" parent="6iExXYZJCIQ0BrOf0lML-336">
          <mxGeometry x="80" y="10" width="10" height="10" as="geometry" />
        </mxCell>
        <mxCell id="6iExXYZJCIQ0BrOf0lML-202" value="" style="rounded=0;whiteSpace=wrap;html=1;strokeColor=#999999;container=0;fillColor=#4D4D4D;" vertex="1" parent="6iExXYZJCIQ0BrOf0lML-336">
          <mxGeometry x="90" y="10" width="10" height="10" as="geometry" />
        </mxCell>
        <mxCell id="6iExXYZJCIQ0BrOf0lML-203" value="" style="rounded=0;whiteSpace=wrap;html=1;strokeColor=#999999;container=0;fillColor=#F2F2F2;" vertex="1" parent="6iExXYZJCIQ0BrOf0lML-336">
          <mxGeometry x="100" y="10" width="10" height="10" as="geometry" />
        </mxCell>
        <mxCell id="6iExXYZJCIQ0BrOf0lML-204" value="" style="rounded=0;whiteSpace=wrap;html=1;strokeColor=#999999;container=0;fillColor=#CCCCCC;" vertex="1" parent="6iExXYZJCIQ0BrOf0lML-336">
          <mxGeometry x="110" y="10" width="10" height="10" as="geometry" />
        </mxCell>
        <mxCell id="6iExXYZJCIQ0BrOf0lML-205" value="" style="group;strokeColor=#999999;container=0;" vertex="1" connectable="0" parent="6iExXYZJCIQ0BrOf0lML-336">
          <mxGeometry y="20" width="120" height="10" as="geometry" />
        </mxCell>
        <mxCell id="6iExXYZJCIQ0BrOf0lML-206" value="" style="rounded=0;whiteSpace=wrap;html=1;strokeColor=#999999;container=0;fillColor=#E6E6E6;" vertex="1" parent="6iExXYZJCIQ0BrOf0lML-336">
          <mxGeometry y="20" width="10" height="10" as="geometry" />
        </mxCell>
        <mxCell id="6iExXYZJCIQ0BrOf0lML-207" value="" style="rounded=0;whiteSpace=wrap;html=1;strokeColor=#999999;container=0;fillColor=#CCCCCC;" vertex="1" parent="6iExXYZJCIQ0BrOf0lML-336">
          <mxGeometry x="10" y="20" width="10" height="10" as="geometry" />
        </mxCell>
        <mxCell id="6iExXYZJCIQ0BrOf0lML-208" value="" style="rounded=0;whiteSpace=wrap;html=1;strokeColor=#999999;container=0;fillColor=#E6E6E6;" vertex="1" parent="6iExXYZJCIQ0BrOf0lML-336">
          <mxGeometry x="20" y="20" width="10" height="10" as="geometry" />
        </mxCell>
        <mxCell id="6iExXYZJCIQ0BrOf0lML-209" value="" style="rounded=0;whiteSpace=wrap;html=1;strokeColor=#999999;container=0;fillColor=#808080;" vertex="1" parent="6iExXYZJCIQ0BrOf0lML-336">
          <mxGeometry x="30" y="20" width="10" height="10" as="geometry" />
        </mxCell>
        <mxCell id="6iExXYZJCIQ0BrOf0lML-210" value="" style="rounded=0;whiteSpace=wrap;html=1;strokeColor=#999999;container=0;fillColor=#808080;" vertex="1" parent="6iExXYZJCIQ0BrOf0lML-336">
          <mxGeometry x="40" y="20" width="10" height="10" as="geometry" />
        </mxCell>
        <mxCell id="6iExXYZJCIQ0BrOf0lML-211" value="" style="rounded=0;whiteSpace=wrap;html=1;strokeColor=#999999;container=0;fillColor=#CCCCCC;" vertex="1" parent="6iExXYZJCIQ0BrOf0lML-336">
          <mxGeometry x="50" y="20" width="10" height="10" as="geometry" />
        </mxCell>
        <mxCell id="6iExXYZJCIQ0BrOf0lML-212" value="" style="rounded=0;whiteSpace=wrap;html=1;strokeColor=#999999;container=0;fillColor=#E6E6E6;" vertex="1" parent="6iExXYZJCIQ0BrOf0lML-336">
          <mxGeometry x="60" y="20" width="10" height="10" as="geometry" />
        </mxCell>
        <mxCell id="6iExXYZJCIQ0BrOf0lML-213" value="" style="rounded=0;whiteSpace=wrap;html=1;strokeColor=#999999;container=0;" vertex="1" parent="6iExXYZJCIQ0BrOf0lML-336">
          <mxGeometry x="70" y="20" width="10" height="10" as="geometry" />
        </mxCell>
        <mxCell id="6iExXYZJCIQ0BrOf0lML-214" value="" style="rounded=0;whiteSpace=wrap;html=1;strokeColor=#999999;container=0;fillColor=#E6E6E6;" vertex="1" parent="6iExXYZJCIQ0BrOf0lML-336">
          <mxGeometry x="80" y="20" width="10" height="10" as="geometry" />
        </mxCell>
        <mxCell id="6iExXYZJCIQ0BrOf0lML-215" value="" style="rounded=0;whiteSpace=wrap;html=1;strokeColor=#999999;container=0;fillColor=#4D4D4D;" vertex="1" parent="6iExXYZJCIQ0BrOf0lML-336">
          <mxGeometry x="90" y="20" width="10" height="10" as="geometry" />
        </mxCell>
        <mxCell id="6iExXYZJCIQ0BrOf0lML-216" value="" style="rounded=0;whiteSpace=wrap;html=1;strokeColor=#999999;container=0;fillColor=#999999;" vertex="1" parent="6iExXYZJCIQ0BrOf0lML-336">
          <mxGeometry x="100" y="20" width="10" height="10" as="geometry" />
        </mxCell>
        <mxCell id="6iExXYZJCIQ0BrOf0lML-217" value="" style="rounded=0;whiteSpace=wrap;html=1;strokeColor=#999999;container=0;fillColor=#CCCCCC;" vertex="1" parent="6iExXYZJCIQ0BrOf0lML-336">
          <mxGeometry x="110" y="20" width="10" height="10" as="geometry" />
        </mxCell>
        <mxCell id="6iExXYZJCIQ0BrOf0lML-218" value="" style="group;strokeColor=#999999;container=0;" vertex="1" connectable="0" parent="6iExXYZJCIQ0BrOf0lML-336">
          <mxGeometry y="30" width="120" height="10" as="geometry" />
        </mxCell>
        <mxCell id="6iExXYZJCIQ0BrOf0lML-219" value="" style="rounded=0;whiteSpace=wrap;html=1;strokeColor=#999999;container=0;fillColor=#E6E6E6;" vertex="1" parent="6iExXYZJCIQ0BrOf0lML-336">
          <mxGeometry y="30" width="10" height="10" as="geometry" />
        </mxCell>
        <mxCell id="6iExXYZJCIQ0BrOf0lML-220" value="" style="rounded=0;whiteSpace=wrap;html=1;strokeColor=#999999;container=0;fillColor=#BABABA;" vertex="1" parent="6iExXYZJCIQ0BrOf0lML-336">
          <mxGeometry x="10" y="30" width="10" height="10" as="geometry" />
        </mxCell>
        <mxCell id="6iExXYZJCIQ0BrOf0lML-221" value="" style="rounded=0;whiteSpace=wrap;html=1;strokeColor=#999999;container=0;fillColor=#FFFFFF;" vertex="1" parent="6iExXYZJCIQ0BrOf0lML-336">
          <mxGeometry x="20" y="30" width="10" height="10" as="geometry" />
        </mxCell>
        <mxCell id="6iExXYZJCIQ0BrOf0lML-222" value="" style="rounded=0;whiteSpace=wrap;html=1;strokeColor=#999999;container=0;fillColor=#808080;" vertex="1" parent="6iExXYZJCIQ0BrOf0lML-336">
          <mxGeometry x="30" y="30" width="10" height="10" as="geometry" />
        </mxCell>
        <mxCell id="6iExXYZJCIQ0BrOf0lML-223" value="" style="rounded=0;whiteSpace=wrap;html=1;strokeColor=#999999;container=0;fillColor=#B8B8B8;" vertex="1" parent="6iExXYZJCIQ0BrOf0lML-336">
          <mxGeometry x="40" y="30" width="10" height="10" as="geometry" />
        </mxCell>
        <mxCell id="6iExXYZJCIQ0BrOf0lML-224" value="" style="rounded=0;whiteSpace=wrap;html=1;strokeColor=#999999;container=0;fillColor=#CCCCCC;" vertex="1" parent="6iExXYZJCIQ0BrOf0lML-336">
          <mxGeometry x="50" y="30" width="10" height="10" as="geometry" />
        </mxCell>
        <mxCell id="6iExXYZJCIQ0BrOf0lML-225" value="" style="rounded=0;whiteSpace=wrap;html=1;strokeColor=#999999;container=0;fillColor=#BFBFBF;" vertex="1" parent="6iExXYZJCIQ0BrOf0lML-336">
          <mxGeometry x="60" y="30" width="10" height="10" as="geometry" />
        </mxCell>
        <mxCell id="6iExXYZJCIQ0BrOf0lML-226" value="" style="rounded=0;whiteSpace=wrap;html=1;strokeColor=#999999;container=0;" vertex="1" parent="6iExXYZJCIQ0BrOf0lML-336">
          <mxGeometry x="70" y="30" width="10" height="10" as="geometry" />
        </mxCell>
        <mxCell id="6iExXYZJCIQ0BrOf0lML-227" value="" style="rounded=0;whiteSpace=wrap;html=1;strokeColor=#999999;container=0;fillColor=#999999;" vertex="1" parent="6iExXYZJCIQ0BrOf0lML-336">
          <mxGeometry x="80" y="30" width="10" height="10" as="geometry" />
        </mxCell>
        <mxCell id="6iExXYZJCIQ0BrOf0lML-228" value="" style="rounded=0;whiteSpace=wrap;html=1;strokeColor=#999999;container=0;fillColor=#4D4D4D;" vertex="1" parent="6iExXYZJCIQ0BrOf0lML-336">
          <mxGeometry x="90" y="30" width="10" height="10" as="geometry" />
        </mxCell>
        <mxCell id="6iExXYZJCIQ0BrOf0lML-229" value="" style="rounded=0;whiteSpace=wrap;html=1;strokeColor=#999999;container=0;fillColor=#999999;" vertex="1" parent="6iExXYZJCIQ0BrOf0lML-336">
          <mxGeometry x="100" y="30" width="10" height="10" as="geometry" />
        </mxCell>
        <mxCell id="6iExXYZJCIQ0BrOf0lML-230" value="" style="rounded=0;whiteSpace=wrap;html=1;strokeColor=#999999;container=0;fillColor=#CCCCCC;" vertex="1" parent="6iExXYZJCIQ0BrOf0lML-336">
          <mxGeometry x="110" y="30" width="10" height="10" as="geometry" />
        </mxCell>
        <mxCell id="6iExXYZJCIQ0BrOf0lML-231" value="" style="group;strokeColor=#999999;container=0;" vertex="1" connectable="0" parent="6iExXYZJCIQ0BrOf0lML-336">
          <mxGeometry y="40" width="120" height="10" as="geometry" />
        </mxCell>
        <mxCell id="6iExXYZJCIQ0BrOf0lML-232" value="" style="rounded=0;whiteSpace=wrap;html=1;strokeColor=#999999;container=0;fillColor=#E8E8E8;" vertex="1" parent="6iExXYZJCIQ0BrOf0lML-336">
          <mxGeometry y="40" width="10" height="10" as="geometry" />
        </mxCell>
        <mxCell id="6iExXYZJCIQ0BrOf0lML-233" value="" style="rounded=0;whiteSpace=wrap;html=1;strokeColor=#999999;container=0;fillColor=#CCCCCC;" vertex="1" parent="6iExXYZJCIQ0BrOf0lML-336">
          <mxGeometry x="10" y="40" width="10" height="10" as="geometry" />
        </mxCell>
        <mxCell id="6iExXYZJCIQ0BrOf0lML-234" value="" style="rounded=0;whiteSpace=wrap;html=1;strokeColor=#999999;container=0;fillColor=#E6E6E6;" vertex="1" parent="6iExXYZJCIQ0BrOf0lML-336">
          <mxGeometry x="20" y="40" width="10" height="10" as="geometry" />
        </mxCell>
        <mxCell id="6iExXYZJCIQ0BrOf0lML-235" value="" style="rounded=0;whiteSpace=wrap;html=1;strokeColor=#999999;container=0;fillColor=#808080;" vertex="1" parent="6iExXYZJCIQ0BrOf0lML-336">
          <mxGeometry x="30" y="40" width="10" height="10" as="geometry" />
        </mxCell>
        <mxCell id="6iExXYZJCIQ0BrOf0lML-236" value="" style="rounded=0;whiteSpace=wrap;html=1;strokeColor=#999999;container=0;fillColor=#999999;" vertex="1" parent="6iExXYZJCIQ0BrOf0lML-336">
          <mxGeometry x="40" y="40" width="10" height="10" as="geometry" />
        </mxCell>
        <mxCell id="6iExXYZJCIQ0BrOf0lML-237" value="" style="rounded=0;whiteSpace=wrap;html=1;strokeColor=#999999;container=0;fillColor=#CCCCCC;" vertex="1" parent="6iExXYZJCIQ0BrOf0lML-336">
          <mxGeometry x="50" y="40" width="10" height="10" as="geometry" />
        </mxCell>
        <mxCell id="6iExXYZJCIQ0BrOf0lML-238" value="" style="rounded=0;whiteSpace=wrap;html=1;strokeColor=#999999;container=0;fillColor=#E6E6E6;" vertex="1" parent="6iExXYZJCIQ0BrOf0lML-336">
          <mxGeometry x="60" y="40" width="10" height="10" as="geometry" />
        </mxCell>
        <mxCell id="6iExXYZJCIQ0BrOf0lML-239" value="" style="rounded=0;whiteSpace=wrap;html=1;strokeColor=#999999;container=0;" vertex="1" parent="6iExXYZJCIQ0BrOf0lML-336">
          <mxGeometry x="70" y="40" width="10" height="10" as="geometry" />
        </mxCell>
        <mxCell id="6iExXYZJCIQ0BrOf0lML-240" value="" style="rounded=0;whiteSpace=wrap;html=1;strokeColor=#999999;container=0;fillColor=#E6E6E6;" vertex="1" parent="6iExXYZJCIQ0BrOf0lML-336">
          <mxGeometry x="80" y="40" width="10" height="10" as="geometry" />
        </mxCell>
        <mxCell id="6iExXYZJCIQ0BrOf0lML-241" value="" style="rounded=0;whiteSpace=wrap;html=1;strokeColor=#999999;container=0;fillColor=#4D4D4D;" vertex="1" parent="6iExXYZJCIQ0BrOf0lML-336">
          <mxGeometry x="90" y="40" width="10" height="10" as="geometry" />
        </mxCell>
        <mxCell id="6iExXYZJCIQ0BrOf0lML-242" value="" style="rounded=0;whiteSpace=wrap;html=1;strokeColor=#999999;container=0;fillColor=#999999;" vertex="1" parent="6iExXYZJCIQ0BrOf0lML-336">
          <mxGeometry x="100" y="40" width="10" height="10" as="geometry" />
        </mxCell>
        <mxCell id="6iExXYZJCIQ0BrOf0lML-243" value="" style="rounded=0;whiteSpace=wrap;html=1;strokeColor=#999999;container=0;fillColor=#E8E8E8;" vertex="1" parent="6iExXYZJCIQ0BrOf0lML-336">
          <mxGeometry x="110" y="40" width="10" height="10" as="geometry" />
        </mxCell>
        <mxCell id="6iExXYZJCIQ0BrOf0lML-244" value="" style="group;strokeColor=#999999;container=0;" vertex="1" connectable="0" parent="6iExXYZJCIQ0BrOf0lML-336">
          <mxGeometry y="50" width="120" height="10" as="geometry" />
        </mxCell>
        <mxCell id="6iExXYZJCIQ0BrOf0lML-245" value="" style="rounded=0;whiteSpace=wrap;html=1;strokeColor=#999999;container=0;fillColor=#F0F0F0;" vertex="1" parent="6iExXYZJCIQ0BrOf0lML-336">
          <mxGeometry y="50" width="10" height="10" as="geometry" />
        </mxCell>
        <mxCell id="6iExXYZJCIQ0BrOf0lML-246" value="" style="rounded=0;whiteSpace=wrap;html=1;strokeColor=#999999;container=0;fillColor=#F2F2F2;" vertex="1" parent="6iExXYZJCIQ0BrOf0lML-336">
          <mxGeometry x="10" y="50" width="10" height="10" as="geometry" />
        </mxCell>
        <mxCell id="6iExXYZJCIQ0BrOf0lML-247" value="" style="rounded=0;whiteSpace=wrap;html=1;strokeColor=#999999;container=0;fillColor=#E6E6E6;" vertex="1" parent="6iExXYZJCIQ0BrOf0lML-336">
          <mxGeometry x="20" y="50" width="10" height="10" as="geometry" />
        </mxCell>
        <mxCell id="6iExXYZJCIQ0BrOf0lML-248" value="" style="rounded=0;whiteSpace=wrap;html=1;strokeColor=#999999;container=0;fillColor=#808080;" vertex="1" parent="6iExXYZJCIQ0BrOf0lML-336">
          <mxGeometry x="30" y="50" width="10" height="10" as="geometry" />
        </mxCell>
        <mxCell id="6iExXYZJCIQ0BrOf0lML-249" value="" style="rounded=0;whiteSpace=wrap;html=1;strokeColor=#999999;container=0;fillColor=#999999;" vertex="1" parent="6iExXYZJCIQ0BrOf0lML-336">
          <mxGeometry x="40" y="50" width="10" height="10" as="geometry" />
        </mxCell>
        <mxCell id="6iExXYZJCIQ0BrOf0lML-250" value="" style="rounded=0;whiteSpace=wrap;html=1;strokeColor=#999999;container=0;fillColor=#B5B5B5;" vertex="1" parent="6iExXYZJCIQ0BrOf0lML-336">
          <mxGeometry x="50" y="50" width="10" height="10" as="geometry" />
        </mxCell>
        <mxCell id="6iExXYZJCIQ0BrOf0lML-251" value="" style="rounded=0;whiteSpace=wrap;html=1;strokeColor=#999999;container=0;fillColor=#E6E6E6;" vertex="1" parent="6iExXYZJCIQ0BrOf0lML-336">
          <mxGeometry x="60" y="50" width="10" height="10" as="geometry" />
        </mxCell>
        <mxCell id="6iExXYZJCIQ0BrOf0lML-252" value="" style="rounded=0;whiteSpace=wrap;html=1;strokeColor=#999999;container=0;" vertex="1" parent="6iExXYZJCIQ0BrOf0lML-336">
          <mxGeometry x="70" y="50" width="10" height="10" as="geometry" />
        </mxCell>
        <mxCell id="6iExXYZJCIQ0BrOf0lML-253" value="" style="rounded=0;whiteSpace=wrap;html=1;strokeColor=#999999;container=0;fillColor=#E6E6E6;" vertex="1" parent="6iExXYZJCIQ0BrOf0lML-336">
          <mxGeometry x="80" y="50" width="10" height="10" as="geometry" />
        </mxCell>
        <mxCell id="6iExXYZJCIQ0BrOf0lML-254" value="" style="rounded=0;whiteSpace=wrap;html=1;strokeColor=#999999;container=0;fillColor=#4D4D4D;" vertex="1" parent="6iExXYZJCIQ0BrOf0lML-336">
          <mxGeometry x="90" y="50" width="10" height="10" as="geometry" />
        </mxCell>
        <mxCell id="6iExXYZJCIQ0BrOf0lML-255" value="" style="rounded=0;whiteSpace=wrap;html=1;strokeColor=#999999;container=0;fillColor=#999999;" vertex="1" parent="6iExXYZJCIQ0BrOf0lML-336">
          <mxGeometry x="100" y="50" width="10" height="10" as="geometry" />
        </mxCell>
        <mxCell id="6iExXYZJCIQ0BrOf0lML-256" value="" style="rounded=0;whiteSpace=wrap;html=1;strokeColor=#999999;container=0;fillColor=#CCCCCC;" vertex="1" parent="6iExXYZJCIQ0BrOf0lML-336">
          <mxGeometry x="110" y="50" width="10" height="10" as="geometry" />
        </mxCell>
        <mxCell id="6iExXYZJCIQ0BrOf0lML-257" value="" style="group;strokeColor=#999999;container=0;" vertex="1" connectable="0" parent="6iExXYZJCIQ0BrOf0lML-336">
          <mxGeometry y="60" width="120" height="10" as="geometry" />
        </mxCell>
        <mxCell id="6iExXYZJCIQ0BrOf0lML-258" value="" style="rounded=0;whiteSpace=wrap;html=1;strokeColor=#999999;container=0;fillColor=#E6E6E6;" vertex="1" parent="6iExXYZJCIQ0BrOf0lML-336">
          <mxGeometry y="60" width="10" height="10" as="geometry" />
        </mxCell>
        <mxCell id="6iExXYZJCIQ0BrOf0lML-259" value="" style="rounded=0;whiteSpace=wrap;html=1;strokeColor=#999999;container=0;fillColor=#CCCCCC;" vertex="1" parent="6iExXYZJCIQ0BrOf0lML-336">
          <mxGeometry x="10" y="60" width="10" height="10" as="geometry" />
        </mxCell>
        <mxCell id="6iExXYZJCIQ0BrOf0lML-260" value="" style="rounded=0;whiteSpace=wrap;html=1;strokeColor=#999999;container=0;fillColor=#E6E6E6;" vertex="1" parent="6iExXYZJCIQ0BrOf0lML-336">
          <mxGeometry x="20" y="60" width="10" height="10" as="geometry" />
        </mxCell>
        <mxCell id="6iExXYZJCIQ0BrOf0lML-261" value="" style="rounded=0;whiteSpace=wrap;html=1;strokeColor=#999999;container=0;fillColor=#666666;" vertex="1" parent="6iExXYZJCIQ0BrOf0lML-336">
          <mxGeometry x="30" y="60" width="10" height="10" as="geometry" />
        </mxCell>
        <mxCell id="6iExXYZJCIQ0BrOf0lML-262" value="" style="rounded=0;whiteSpace=wrap;html=1;strokeColor=#999999;container=0;fillColor=#999999;" vertex="1" parent="6iExXYZJCIQ0BrOf0lML-336">
          <mxGeometry x="40" y="60" width="10" height="10" as="geometry" />
        </mxCell>
        <mxCell id="6iExXYZJCIQ0BrOf0lML-263" value="" style="rounded=0;whiteSpace=wrap;html=1;strokeColor=#999999;container=0;fillColor=#CCCCCC;" vertex="1" parent="6iExXYZJCIQ0BrOf0lML-336">
          <mxGeometry x="50" y="60" width="10" height="10" as="geometry" />
        </mxCell>
        <mxCell id="6iExXYZJCIQ0BrOf0lML-264" value="" style="rounded=0;whiteSpace=wrap;html=1;strokeColor=#999999;container=0;fillColor=#E6E6E6;" vertex="1" parent="6iExXYZJCIQ0BrOf0lML-336">
          <mxGeometry x="60" y="60" width="10" height="10" as="geometry" />
        </mxCell>
        <mxCell id="6iExXYZJCIQ0BrOf0lML-265" value="" style="rounded=0;whiteSpace=wrap;html=1;strokeColor=#999999;container=0;" vertex="1" parent="6iExXYZJCIQ0BrOf0lML-336">
          <mxGeometry x="70" y="60" width="10" height="10" as="geometry" />
        </mxCell>
        <mxCell id="6iExXYZJCIQ0BrOf0lML-266" value="" style="rounded=0;whiteSpace=wrap;html=1;strokeColor=#999999;container=0;fillColor=#E6E6E6;" vertex="1" parent="6iExXYZJCIQ0BrOf0lML-336">
          <mxGeometry x="80" y="60" width="10" height="10" as="geometry" />
        </mxCell>
        <mxCell id="6iExXYZJCIQ0BrOf0lML-267" value="" style="rounded=0;whiteSpace=wrap;html=1;strokeColor=#999999;container=0;fillColor=#B3B3B3;" vertex="1" parent="6iExXYZJCIQ0BrOf0lML-336">
          <mxGeometry x="90" y="60" width="10" height="10" as="geometry" />
        </mxCell>
        <mxCell id="6iExXYZJCIQ0BrOf0lML-268" value="" style="rounded=0;whiteSpace=wrap;html=1;strokeColor=#999999;container=0;fillColor=#999999;" vertex="1" parent="6iExXYZJCIQ0BrOf0lML-336">
          <mxGeometry x="100" y="60" width="10" height="10" as="geometry" />
        </mxCell>
        <mxCell id="6iExXYZJCIQ0BrOf0lML-269" value="" style="rounded=0;whiteSpace=wrap;html=1;strokeColor=#999999;container=0;fillColor=#CCCCCC;" vertex="1" parent="6iExXYZJCIQ0BrOf0lML-336">
          <mxGeometry x="110" y="60" width="10" height="10" as="geometry" />
        </mxCell>
        <mxCell id="6iExXYZJCIQ0BrOf0lML-270" value="" style="group;strokeColor=#999999;container=0;" vertex="1" connectable="0" parent="6iExXYZJCIQ0BrOf0lML-336">
          <mxGeometry y="70" width="120" height="10" as="geometry" />
        </mxCell>
        <mxCell id="6iExXYZJCIQ0BrOf0lML-271" value="" style="rounded=0;whiteSpace=wrap;html=1;strokeColor=#999999;container=0;fillColor=#B3B3B3;" vertex="1" parent="6iExXYZJCIQ0BrOf0lML-336">
          <mxGeometry y="70" width="10" height="10" as="geometry" />
        </mxCell>
        <mxCell id="6iExXYZJCIQ0BrOf0lML-272" value="" style="rounded=0;whiteSpace=wrap;html=1;strokeColor=#999999;container=0;fillColor=#CCCCCC;" vertex="1" parent="6iExXYZJCIQ0BrOf0lML-336">
          <mxGeometry x="10" y="70" width="10" height="10" as="geometry" />
        </mxCell>
        <mxCell id="6iExXYZJCIQ0BrOf0lML-273" value="" style="rounded=0;whiteSpace=wrap;html=1;strokeColor=#999999;container=0;fillColor=#E6E6E6;" vertex="1" parent="6iExXYZJCIQ0BrOf0lML-336">
          <mxGeometry x="20" y="70" width="10" height="10" as="geometry" />
        </mxCell>
        <mxCell id="6iExXYZJCIQ0BrOf0lML-274" value="" style="rounded=0;whiteSpace=wrap;html=1;strokeColor=#999999;container=0;fillColor=#808080;" vertex="1" parent="6iExXYZJCIQ0BrOf0lML-336">
          <mxGeometry x="30" y="70" width="10" height="10" as="geometry" />
        </mxCell>
        <mxCell id="6iExXYZJCIQ0BrOf0lML-275" value="" style="rounded=0;whiteSpace=wrap;html=1;strokeColor=#999999;container=0;fillColor=#999999;" vertex="1" parent="6iExXYZJCIQ0BrOf0lML-336">
          <mxGeometry x="40" y="70" width="10" height="10" as="geometry" />
        </mxCell>
        <mxCell id="6iExXYZJCIQ0BrOf0lML-276" value="" style="rounded=0;whiteSpace=wrap;html=1;strokeColor=#999999;container=0;fillColor=#E8E8E8;" vertex="1" parent="6iExXYZJCIQ0BrOf0lML-336">
          <mxGeometry x="50" y="70" width="10" height="10" as="geometry" />
        </mxCell>
        <mxCell id="6iExXYZJCIQ0BrOf0lML-277" value="" style="rounded=0;whiteSpace=wrap;html=1;strokeColor=#999999;container=0;fillColor=#E6E6E6;" vertex="1" parent="6iExXYZJCIQ0BrOf0lML-336">
          <mxGeometry x="60" y="70" width="10" height="10" as="geometry" />
        </mxCell>
        <mxCell id="6iExXYZJCIQ0BrOf0lML-278" value="" style="rounded=0;whiteSpace=wrap;html=1;strokeColor=#999999;container=0;" vertex="1" parent="6iExXYZJCIQ0BrOf0lML-336">
          <mxGeometry x="70" y="70" width="10" height="10" as="geometry" />
        </mxCell>
        <mxCell id="6iExXYZJCIQ0BrOf0lML-279" value="" style="rounded=0;whiteSpace=wrap;html=1;strokeColor=#999999;container=0;fillColor=#E6E6E6;" vertex="1" parent="6iExXYZJCIQ0BrOf0lML-336">
          <mxGeometry x="80" y="70" width="10" height="10" as="geometry" />
        </mxCell>
        <mxCell id="6iExXYZJCIQ0BrOf0lML-280" value="" style="rounded=0;whiteSpace=wrap;html=1;strokeColor=#999999;container=0;fillColor=#4D4D4D;" vertex="1" parent="6iExXYZJCIQ0BrOf0lML-336">
          <mxGeometry x="90" y="70" width="10" height="10" as="geometry" />
        </mxCell>
        <mxCell id="6iExXYZJCIQ0BrOf0lML-281" value="" style="rounded=0;whiteSpace=wrap;html=1;strokeColor=#999999;container=0;fillColor=#999999;" vertex="1" parent="6iExXYZJCIQ0BrOf0lML-336">
          <mxGeometry x="100" y="70" width="10" height="10" as="geometry" />
        </mxCell>
        <mxCell id="6iExXYZJCIQ0BrOf0lML-282" value="" style="rounded=0;whiteSpace=wrap;html=1;strokeColor=#999999;container=0;fillColor=#CCCCCC;" vertex="1" parent="6iExXYZJCIQ0BrOf0lML-336">
          <mxGeometry x="110" y="70" width="10" height="10" as="geometry" />
        </mxCell>
        <mxCell id="6iExXYZJCIQ0BrOf0lML-283" value="" style="group;strokeColor=#999999;container=0;" vertex="1" connectable="0" parent="6iExXYZJCIQ0BrOf0lML-336">
          <mxGeometry y="80" width="120" height="10" as="geometry" />
        </mxCell>
        <mxCell id="6iExXYZJCIQ0BrOf0lML-284" value="" style="rounded=0;whiteSpace=wrap;html=1;strokeColor=#999999;container=0;fillColor=#E6E6E6;" vertex="1" parent="6iExXYZJCIQ0BrOf0lML-336">
          <mxGeometry y="80" width="10" height="10" as="geometry" />
        </mxCell>
        <mxCell id="6iExXYZJCIQ0BrOf0lML-285" value="" style="rounded=0;whiteSpace=wrap;html=1;strokeColor=#999999;container=0;fillColor=#CCCCCC;" vertex="1" parent="6iExXYZJCIQ0BrOf0lML-336">
          <mxGeometry x="10" y="80" width="10" height="10" as="geometry" />
        </mxCell>
        <mxCell id="6iExXYZJCIQ0BrOf0lML-286" value="" style="rounded=0;whiteSpace=wrap;html=1;strokeColor=#999999;container=0;fillColor=#B3B3B3;" vertex="1" parent="6iExXYZJCIQ0BrOf0lML-336">
          <mxGeometry x="20" y="80" width="10" height="10" as="geometry" />
        </mxCell>
        <mxCell id="6iExXYZJCIQ0BrOf0lML-287" value="" style="rounded=0;whiteSpace=wrap;html=1;strokeColor=#999999;container=0;fillColor=#808080;" vertex="1" parent="6iExXYZJCIQ0BrOf0lML-336">
          <mxGeometry x="30" y="80" width="10" height="10" as="geometry" />
        </mxCell>
        <mxCell id="6iExXYZJCIQ0BrOf0lML-288" value="" style="rounded=0;whiteSpace=wrap;html=1;strokeColor=#999999;container=0;fillColor=#666666;" vertex="1" parent="6iExXYZJCIQ0BrOf0lML-336">
          <mxGeometry x="40" y="80" width="10" height="10" as="geometry" />
        </mxCell>
        <mxCell id="6iExXYZJCIQ0BrOf0lML-289" value="" style="rounded=0;whiteSpace=wrap;html=1;strokeColor=#999999;container=0;fillColor=#CCCCCC;" vertex="1" parent="6iExXYZJCIQ0BrOf0lML-336">
          <mxGeometry x="50" y="80" width="10" height="10" as="geometry" />
        </mxCell>
        <mxCell id="6iExXYZJCIQ0BrOf0lML-290" value="" style="rounded=0;whiteSpace=wrap;html=1;strokeColor=#999999;container=0;fillColor=#E6E6E6;" vertex="1" parent="6iExXYZJCIQ0BrOf0lML-336">
          <mxGeometry x="60" y="80" width="10" height="10" as="geometry" />
        </mxCell>
        <mxCell id="6iExXYZJCIQ0BrOf0lML-291" value="" style="rounded=0;whiteSpace=wrap;html=1;strokeColor=#999999;container=0;fillColor=#E6E6E6;" vertex="1" parent="6iExXYZJCIQ0BrOf0lML-336">
          <mxGeometry x="70" y="80" width="10" height="10" as="geometry" />
        </mxCell>
        <mxCell id="6iExXYZJCIQ0BrOf0lML-292" value="" style="rounded=0;whiteSpace=wrap;html=1;strokeColor=#999999;container=0;fillColor=#E6E6E6;" vertex="1" parent="6iExXYZJCIQ0BrOf0lML-336">
          <mxGeometry x="80" y="80" width="10" height="10" as="geometry" />
        </mxCell>
        <mxCell id="6iExXYZJCIQ0BrOf0lML-293" value="" style="rounded=0;whiteSpace=wrap;html=1;strokeColor=#999999;container=0;fillColor=#4D4D4D;" vertex="1" parent="6iExXYZJCIQ0BrOf0lML-336">
          <mxGeometry x="90" y="80" width="10" height="10" as="geometry" />
        </mxCell>
        <mxCell id="6iExXYZJCIQ0BrOf0lML-294" value="" style="rounded=0;whiteSpace=wrap;html=1;strokeColor=#999999;container=0;fillColor=#D9D9D9;" vertex="1" parent="6iExXYZJCIQ0BrOf0lML-336">
          <mxGeometry x="100" y="80" width="10" height="10" as="geometry" />
        </mxCell>
        <mxCell id="6iExXYZJCIQ0BrOf0lML-295" value="" style="rounded=0;whiteSpace=wrap;html=1;strokeColor=#999999;container=0;fillColor=#CCCCCC;" vertex="1" parent="6iExXYZJCIQ0BrOf0lML-336">
          <mxGeometry x="110" y="80" width="10" height="10" as="geometry" />
        </mxCell>
        <mxCell id="6iExXYZJCIQ0BrOf0lML-296" value="" style="group;strokeColor=#999999;container=0;" vertex="1" connectable="0" parent="6iExXYZJCIQ0BrOf0lML-336">
          <mxGeometry y="90" width="120" height="10" as="geometry" />
        </mxCell>
        <mxCell id="6iExXYZJCIQ0BrOf0lML-297" value="" style="rounded=0;whiteSpace=wrap;html=1;strokeColor=#999999;container=0;fillColor=#F7F7F7;" vertex="1" parent="6iExXYZJCIQ0BrOf0lML-336">
          <mxGeometry y="90" width="10" height="10" as="geometry" />
        </mxCell>
        <mxCell id="6iExXYZJCIQ0BrOf0lML-298" value="" style="rounded=0;whiteSpace=wrap;html=1;strokeColor=#999999;container=0;fillColor=#B8B8B8;" vertex="1" parent="6iExXYZJCIQ0BrOf0lML-336">
          <mxGeometry x="10" y="90" width="10" height="10" as="geometry" />
        </mxCell>
        <mxCell id="6iExXYZJCIQ0BrOf0lML-299" value="" style="rounded=0;whiteSpace=wrap;html=1;strokeColor=#999999;container=0;fillColor=#E6E6E6;" vertex="1" parent="6iExXYZJCIQ0BrOf0lML-336">
          <mxGeometry x="20" y="90" width="10" height="10" as="geometry" />
        </mxCell>
        <mxCell id="6iExXYZJCIQ0BrOf0lML-300" value="" style="rounded=0;whiteSpace=wrap;html=1;strokeColor=#999999;container=0;fillColor=#808080;" vertex="1" parent="6iExXYZJCIQ0BrOf0lML-336">
          <mxGeometry x="30" y="90" width="10" height="10" as="geometry" />
        </mxCell>
        <mxCell id="6iExXYZJCIQ0BrOf0lML-301" value="" style="rounded=0;whiteSpace=wrap;html=1;strokeColor=#999999;container=0;fillColor=#999999;" vertex="1" parent="6iExXYZJCIQ0BrOf0lML-336">
          <mxGeometry x="40" y="90" width="10" height="10" as="geometry" />
        </mxCell>
        <mxCell id="6iExXYZJCIQ0BrOf0lML-302" value="" style="rounded=0;whiteSpace=wrap;html=1;strokeColor=#999999;container=0;fillColor=#CCCCCC;" vertex="1" parent="6iExXYZJCIQ0BrOf0lML-336">
          <mxGeometry x="50" y="90" width="10" height="10" as="geometry" />
        </mxCell>
        <mxCell id="6iExXYZJCIQ0BrOf0lML-303" value="" style="rounded=0;whiteSpace=wrap;html=1;strokeColor=#999999;container=0;fillColor=#E6E6E6;" vertex="1" parent="6iExXYZJCIQ0BrOf0lML-336">
          <mxGeometry x="60" y="90" width="10" height="10" as="geometry" />
        </mxCell>
        <mxCell id="6iExXYZJCIQ0BrOf0lML-304" value="" style="rounded=0;whiteSpace=wrap;html=1;strokeColor=#999999;container=0;" vertex="1" parent="6iExXYZJCIQ0BrOf0lML-336">
          <mxGeometry x="70" y="90" width="10" height="10" as="geometry" />
        </mxCell>
        <mxCell id="6iExXYZJCIQ0BrOf0lML-305" value="" style="rounded=0;whiteSpace=wrap;html=1;strokeColor=#999999;container=0;fillColor=#E6E6E6;" vertex="1" parent="6iExXYZJCIQ0BrOf0lML-336">
          <mxGeometry x="80" y="90" width="10" height="10" as="geometry" />
        </mxCell>
        <mxCell id="6iExXYZJCIQ0BrOf0lML-306" value="" style="rounded=0;whiteSpace=wrap;html=1;strokeColor=#999999;container=0;fillColor=#4D4D4D;" vertex="1" parent="6iExXYZJCIQ0BrOf0lML-336">
          <mxGeometry x="90" y="90" width="10" height="10" as="geometry" />
        </mxCell>
        <mxCell id="6iExXYZJCIQ0BrOf0lML-307" value="" style="rounded=0;whiteSpace=wrap;html=1;strokeColor=#999999;container=0;fillColor=#999999;" vertex="1" parent="6iExXYZJCIQ0BrOf0lML-336">
          <mxGeometry x="100" y="90" width="10" height="10" as="geometry" />
        </mxCell>
        <mxCell id="6iExXYZJCIQ0BrOf0lML-308" value="" style="rounded=0;whiteSpace=wrap;html=1;strokeColor=#999999;container=0;fillColor=#DBDBDB;" vertex="1" parent="6iExXYZJCIQ0BrOf0lML-336">
          <mxGeometry x="110" y="90" width="10" height="10" as="geometry" />
        </mxCell>
        <mxCell id="6iExXYZJCIQ0BrOf0lML-309" value="" style="group;strokeColor=#999999;container=0;" vertex="1" connectable="0" parent="6iExXYZJCIQ0BrOf0lML-336">
          <mxGeometry y="100" width="120" height="10" as="geometry" />
        </mxCell>
        <mxCell id="6iExXYZJCIQ0BrOf0lML-310" value="" style="rounded=0;whiteSpace=wrap;html=1;strokeColor=#999999;container=0;fillColor=#E6E6E6;" vertex="1" parent="6iExXYZJCIQ0BrOf0lML-336">
          <mxGeometry y="100" width="10" height="10" as="geometry" />
        </mxCell>
        <mxCell id="6iExXYZJCIQ0BrOf0lML-311" value="" style="rounded=0;whiteSpace=wrap;html=1;strokeColor=#999999;container=0;fillColor=#CCCCCC;" vertex="1" parent="6iExXYZJCIQ0BrOf0lML-336">
          <mxGeometry x="10" y="100" width="10" height="10" as="geometry" />
        </mxCell>
        <mxCell id="6iExXYZJCIQ0BrOf0lML-312" value="" style="rounded=0;whiteSpace=wrap;html=1;strokeColor=#999999;container=0;fillColor=#E6E6E6;" vertex="1" parent="6iExXYZJCIQ0BrOf0lML-336">
          <mxGeometry x="20" y="100" width="10" height="10" as="geometry" />
        </mxCell>
        <mxCell id="6iExXYZJCIQ0BrOf0lML-313" value="" style="rounded=0;whiteSpace=wrap;html=1;strokeColor=#999999;container=0;fillColor=#808080;" vertex="1" parent="6iExXYZJCIQ0BrOf0lML-336">
          <mxGeometry x="30" y="100" width="10" height="10" as="geometry" />
        </mxCell>
        <mxCell id="6iExXYZJCIQ0BrOf0lML-314" value="" style="rounded=0;whiteSpace=wrap;html=1;strokeColor=#999999;container=0;fillColor=#999999;" vertex="1" parent="6iExXYZJCIQ0BrOf0lML-336">
          <mxGeometry x="40" y="100" width="10" height="10" as="geometry" />
        </mxCell>
        <mxCell id="6iExXYZJCIQ0BrOf0lML-315" value="" style="rounded=0;whiteSpace=wrap;html=1;strokeColor=#999999;container=0;fillColor=#CCCCCC;" vertex="1" parent="6iExXYZJCIQ0BrOf0lML-336">
          <mxGeometry x="50" y="100" width="10" height="10" as="geometry" />
        </mxCell>
        <mxCell id="6iExXYZJCIQ0BrOf0lML-316" value="" style="rounded=0;whiteSpace=wrap;html=1;strokeColor=#999999;container=0;fillColor=#F5F5F5;" vertex="1" parent="6iExXYZJCIQ0BrOf0lML-336">
          <mxGeometry x="60" y="100" width="10" height="10" as="geometry" />
        </mxCell>
        <mxCell id="6iExXYZJCIQ0BrOf0lML-317" value="" style="rounded=0;whiteSpace=wrap;html=1;strokeColor=#999999;container=0;" vertex="1" parent="6iExXYZJCIQ0BrOf0lML-336">
          <mxGeometry x="70" y="100" width="10" height="10" as="geometry" />
        </mxCell>
        <mxCell id="6iExXYZJCIQ0BrOf0lML-318" value="" style="rounded=0;whiteSpace=wrap;html=1;strokeColor=#999999;container=0;fillColor=#E6E6E6;" vertex="1" parent="6iExXYZJCIQ0BrOf0lML-336">
          <mxGeometry x="80" y="100" width="10" height="10" as="geometry" />
        </mxCell>
        <mxCell id="6iExXYZJCIQ0BrOf0lML-319" value="" style="rounded=0;whiteSpace=wrap;html=1;strokeColor=#999999;container=0;fillColor=#4D4D4D;" vertex="1" parent="6iExXYZJCIQ0BrOf0lML-336">
          <mxGeometry x="90" y="100" width="10" height="10" as="geometry" />
        </mxCell>
        <mxCell id="6iExXYZJCIQ0BrOf0lML-320" value="" style="rounded=0;whiteSpace=wrap;html=1;strokeColor=#999999;container=0;fillColor=#999999;" vertex="1" parent="6iExXYZJCIQ0BrOf0lML-336">
          <mxGeometry x="100" y="100" width="10" height="10" as="geometry" />
        </mxCell>
        <mxCell id="6iExXYZJCIQ0BrOf0lML-321" value="" style="rounded=0;whiteSpace=wrap;html=1;strokeColor=#999999;container=0;fillColor=#CCCCCC;" vertex="1" parent="6iExXYZJCIQ0BrOf0lML-336">
          <mxGeometry x="110" y="100" width="10" height="10" as="geometry" />
        </mxCell>
        <mxCell id="6iExXYZJCIQ0BrOf0lML-322" value="" style="group;strokeColor=#999999;container=0;" vertex="1" connectable="0" parent="6iExXYZJCIQ0BrOf0lML-336">
          <mxGeometry y="110" width="120" height="10" as="geometry" />
        </mxCell>
        <mxCell id="6iExXYZJCIQ0BrOf0lML-323" value="" style="rounded=0;whiteSpace=wrap;html=1;strokeColor=#999999;container=0;fillColor=#E6E6E6;" vertex="1" parent="6iExXYZJCIQ0BrOf0lML-336">
          <mxGeometry y="110" width="10" height="10" as="geometry" />
        </mxCell>
        <mxCell id="6iExXYZJCIQ0BrOf0lML-324" value="" style="rounded=0;whiteSpace=wrap;html=1;strokeColor=#999999;container=0;fillColor=#CCCCCC;" vertex="1" parent="6iExXYZJCIQ0BrOf0lML-336">
          <mxGeometry x="10" y="110" width="10" height="10" as="geometry" />
        </mxCell>
        <mxCell id="6iExXYZJCIQ0BrOf0lML-325" value="" style="rounded=0;whiteSpace=wrap;html=1;strokeColor=#999999;container=0;fillColor=#E6E6E6;" vertex="1" parent="6iExXYZJCIQ0BrOf0lML-336">
          <mxGeometry x="20" y="110" width="10" height="10" as="geometry" />
        </mxCell>
        <mxCell id="6iExXYZJCIQ0BrOf0lML-326" value="" style="rounded=0;whiteSpace=wrap;html=1;strokeColor=#999999;container=0;fillColor=#808080;" vertex="1" parent="6iExXYZJCIQ0BrOf0lML-336">
          <mxGeometry x="30" y="110" width="10" height="10" as="geometry" />
        </mxCell>
        <mxCell id="6iExXYZJCIQ0BrOf0lML-327" value="" style="rounded=0;whiteSpace=wrap;html=1;strokeColor=#999999;container=0;fillColor=#999999;" vertex="1" parent="6iExXYZJCIQ0BrOf0lML-336">
          <mxGeometry x="40" y="110" width="10" height="10" as="geometry" />
        </mxCell>
        <mxCell id="6iExXYZJCIQ0BrOf0lML-328" value="" style="rounded=0;whiteSpace=wrap;html=1;strokeColor=#999999;container=0;fillColor=#F2F2F2;" vertex="1" parent="6iExXYZJCIQ0BrOf0lML-336">
          <mxGeometry x="50" y="110" width="10" height="10" as="geometry" />
        </mxCell>
        <mxCell id="6iExXYZJCIQ0BrOf0lML-329" value="" style="rounded=0;whiteSpace=wrap;html=1;strokeColor=#999999;container=0;fillColor=#E6E6E6;" vertex="1" parent="6iExXYZJCIQ0BrOf0lML-336">
          <mxGeometry x="60" y="110" width="10" height="10" as="geometry" />
        </mxCell>
        <mxCell id="6iExXYZJCIQ0BrOf0lML-330" value="" style="rounded=0;whiteSpace=wrap;html=1;strokeColor=#999999;container=0;" vertex="1" parent="6iExXYZJCIQ0BrOf0lML-336">
          <mxGeometry x="70" y="110" width="10" height="10" as="geometry" />
        </mxCell>
        <mxCell id="6iExXYZJCIQ0BrOf0lML-331" value="" style="rounded=0;whiteSpace=wrap;html=1;strokeColor=#999999;container=0;fillColor=#E6E6E6;" vertex="1" parent="6iExXYZJCIQ0BrOf0lML-336">
          <mxGeometry x="80" y="110" width="10" height="10" as="geometry" />
        </mxCell>
        <mxCell id="6iExXYZJCIQ0BrOf0lML-332" value="" style="rounded=0;whiteSpace=wrap;html=1;strokeColor=#999999;container=0;fillColor=#4D4D4D;" vertex="1" parent="6iExXYZJCIQ0BrOf0lML-336">
          <mxGeometry x="90" y="110" width="10" height="10" as="geometry" />
        </mxCell>
        <mxCell id="6iExXYZJCIQ0BrOf0lML-333" value="" style="rounded=0;whiteSpace=wrap;html=1;strokeColor=#999999;container=0;fillColor=#B3B3B3;" vertex="1" parent="6iExXYZJCIQ0BrOf0lML-336">
          <mxGeometry x="100" y="110" width="10" height="10" as="geometry" />
        </mxCell>
        <mxCell id="6iExXYZJCIQ0BrOf0lML-334" value="" style="rounded=0;whiteSpace=wrap;html=1;strokeColor=#999999;container=0;fillColor=#CCCCCC;" vertex="1" parent="6iExXYZJCIQ0BrOf0lML-336">
          <mxGeometry x="110" y="110" width="10" height="10" as="geometry" />
        </mxCell>
        <mxCell id="6iExXYZJCIQ0BrOf0lML-337" value="&lt;font face=&quot;Times New Roman&quot;&gt;&lt;b&gt;Masked Matrix&lt;/b&gt;&lt;/font&gt;" style="rounded=1;whiteSpace=wrap;html=1;arcSize=5;opacity=80;" vertex="1" parent="1">
          <mxGeometry x="430" y="160" width="120" height="120" as="geometry" />
        </mxCell>
        <mxCell id="6iExXYZJCIQ0BrOf0lML-338" value="&lt;font face=&quot;Times New Roman&quot;&gt;General ability Mask&lt;/font&gt;" style="text;html=1;strokeColor=none;fillColor=none;align=center;verticalAlign=middle;whiteSpace=wrap;rounded=0;" vertex="1" parent="1">
          <mxGeometry x="430" y="440" width="120" height="30" as="geometry" />
        </mxCell>
        <mxCell id="6iExXYZJCIQ0BrOf0lML-966" value="" style="shape=flexArrow;endArrow=classic;html=1;rounded=0;width=6.857142857142857;endSize=4.251428571428572;endWidth=8.653061224489795;entryX=0.5;entryY=1;entryDx=0;entryDy=0;" edge="1" parent="1">
          <mxGeometry width="50" height="50" relative="1" as="geometry">
            <mxPoint x="489.83" y="315" as="sourcePoint" />
            <mxPoint x="489.83" y="285" as="targetPoint" />
          </mxGeometry>
        </mxCell>
        <mxCell id="6iExXYZJCIQ0BrOf0lML-969" value="" style="shape=flexArrow;endArrow=classic;html=1;rounded=0;width=6.857142857142857;endSize=2.6666666666666665;endWidth=10.380952380952381;" edge="1" parent="1">
          <mxGeometry width="50" height="50" relative="1" as="geometry">
            <mxPoint x="560" y="219.83" as="sourcePoint" />
            <mxPoint x="610" y="219.83" as="targetPoint" />
          </mxGeometry>
        </mxCell>
        <mxCell id="6iExXYZJCIQ0BrOf0lML-970" value="&lt;font face=&quot;Times New Roman&quot;&gt;SVD&lt;/font&gt;" style="edgeLabel;html=1;align=center;verticalAlign=middle;resizable=0;points=[];" vertex="1" connectable="0" parent="6iExXYZJCIQ0BrOf0lML-969">
          <mxGeometry x="-0.2533" relative="1" as="geometry">
            <mxPoint x="4" y="14" as="offset" />
          </mxGeometry>
        </mxCell>
        <mxCell id="6iExXYZJCIQ0BrOf0lML-973" value="" style="shape=trapezoid;perimeter=trapezoidPerimeter;whiteSpace=wrap;html=1;fixedSize=1;size=30;fillColor=#f5f5f5;fontColor=#333333;strokeColor=#666666;" vertex="1" parent="1">
          <mxGeometry x="620" y="230" width="120" height="20" as="geometry" />
        </mxCell>
        <mxCell id="6iExXYZJCIQ0BrOf0lML-974" value="" style="shape=trapezoid;perimeter=trapezoidPerimeter;whiteSpace=wrap;html=1;fixedSize=1;rotation=-180;size=30;fillColor=#f5f5f5;fontColor=#333333;strokeColor=#666666;" vertex="1" parent="1">
          <mxGeometry x="620" y="190" width="120" height="20" as="geometry" />
        </mxCell>
        <mxCell id="6iExXYZJCIQ0BrOf0lML-975" value="&lt;font face=&quot;Times New Roman&quot;&gt;Compressed LM&lt;/font&gt;" style="text;html=1;strokeColor=none;fillColor=none;align=center;verticalAlign=middle;whiteSpace=wrap;rounded=0;" vertex="1" parent="1">
          <mxGeometry x="620" y="250" width="120" height="30" as="geometry" />
        </mxCell>
        <mxCell id="6iExXYZJCIQ0BrOf0lML-977" value="&lt;font face=&quot;Times New Roman&quot;&gt;&lt;b&gt;Weight Matrices&lt;/b&gt;&lt;/font&gt;" style="rounded=1;whiteSpace=wrap;html=1;arcSize=6;fillColor=#F2F2F2;" vertex="1" parent="1">
          <mxGeometry x="180" y="150" width="120" height="120" as="geometry" />
        </mxCell>
        <mxCell id="6iExXYZJCIQ0BrOf0lML-978" value="&lt;font face=&quot;Times New Roman&quot;&gt;&lt;b&gt;Weight Matrices&lt;/b&gt;&lt;/font&gt;" style="rounded=1;whiteSpace=wrap;html=1;arcSize=6;" vertex="1" parent="1">
          <mxGeometry x="190" y="160" width="120" height="120" as="geometry" />
        </mxCell>
        <mxCell id="6iExXYZJCIQ0BrOf0lML-979" value="&lt;font face=&quot;Times New Roman&quot;&gt;Original Model&lt;/font&gt;" style="text;html=1;strokeColor=none;fillColor=none;align=center;verticalAlign=middle;whiteSpace=wrap;rounded=0;" vertex="1" parent="1">
          <mxGeometry x="180" y="110" width="120" height="30" as="geometry" />
        </mxCell>
        <mxCell id="6iExXYZJCIQ0BrOf0lML-983" value="" style="shape=flexArrow;endArrow=classic;html=1;rounded=0;width=6.857142857142857;endSize=2.6666666666666665;endWidth=10.380952380952381;" edge="1" parent="1">
          <mxGeometry width="50" height="50" relative="1" as="geometry">
            <mxPoint x="750" y="219.83" as="sourcePoint" />
            <mxPoint x="800" y="219.83" as="targetPoint" />
          </mxGeometry>
        </mxCell>
        <mxCell id="6iExXYZJCIQ0BrOf0lML-984" value="&lt;font face=&quot;Times New Roman&quot;&gt;Re-tune LoRA&lt;/font&gt;" style="edgeLabel;html=1;align=center;verticalAlign=middle;resizable=0;points=[];" vertex="1" connectable="0" parent="6iExXYZJCIQ0BrOf0lML-983">
          <mxGeometry x="-0.2533" relative="1" as="geometry">
            <mxPoint x="4" y="17" as="offset" />
          </mxGeometry>
        </mxCell>
        <mxCell id="6iExXYZJCIQ0BrOf0lML-987" value="" style="shape=trapezoid;perimeter=trapezoidPerimeter;whiteSpace=wrap;html=1;fixedSize=1;size=30;fillColor=#F5F3E4;fontColor=#333333;strokeColor=#666666;" vertex="1" parent="1">
          <mxGeometry x="810" y="230" width="120" height="20" as="geometry" />
        </mxCell>
        <mxCell id="6iExXYZJCIQ0BrOf0lML-988" value="" style="shape=trapezoid;perimeter=trapezoidPerimeter;whiteSpace=wrap;html=1;fixedSize=1;rotation=-180;size=30;fillColor=#F5F3E4;fontColor=#333333;strokeColor=#666666;" vertex="1" parent="1">
          <mxGeometry x="810" y="190" width="120" height="20" as="geometry" />
        </mxCell>
        <mxCell id="6iExXYZJCIQ0BrOf0lML-989" value="&lt;font face=&quot;Times New Roman&quot;&gt;Domain wise LM&lt;/font&gt;" style="text;html=1;strokeColor=none;fillColor=none;align=center;verticalAlign=middle;whiteSpace=wrap;rounded=0;" vertex="1" parent="1">
          <mxGeometry x="810" y="250" width="120" height="30" as="geometry" />
        </mxCell>
      </root>
    </mxGraphModel>
  </diagram>
</mxfile>
